<?xml version="1.0" encoding="utf-8"?>
<!-- Generator: Adobe Illustrator 25.2.0, SVG Export Plug-In . SVG Version: 6.00 Build 0)  -->
<svg version="1.1" id="Layer_1" xmlns="http://www.w3.org/2000/svg" xmlns:xlink="http://www.w3.org/1999/xlink" x="0px" y="0px"
	 viewBox="0 0 482 126.6" style="enable-background:new 0 0 482 126.6;" xml:space="preserve">
<g>
	<path d="M16.7,87.6c-4.5-2.6-8-6.1-10.7-10.4C3.4,72.8,2.1,68,2.1,62.8c0-5.2,1.3-9.9,3.9-14.3c2.6-4.4,6.2-7.9,10.7-10.4
		c4.5-2.6,9.3-3.9,14.5-3.9c7.6,0,14.1,2.6,19.6,7.9l-5.5,5.5c-4-3.7-8.7-5.6-14.1-5.6c-3.8,0-7.2,0.9-10.4,2.8
		c-3.1,1.9-5.6,4.4-7.4,7.6c-1.8,3.2-2.7,6.7-2.7,10.4c0,3.8,0.9,7.3,2.7,10.4c1.8,3.2,4.3,5.7,7.4,7.6c3.1,1.9,6.6,2.8,10.4,2.8
		c3.4,0,6.2-0.5,8.5-1.6c2.3-1.1,4.3-2.4,6-4.1c2.3-2.3,3.7-5.6,4.3-9.9H31.2v-7.8h26.3c0.3,1.4,0.4,3,0.4,4.9
		c0,3.3-0.5,6.6-1.6,9.9c-1.1,3.3-2.8,6.1-5.2,8.5c-5.1,5.4-11.8,8-20,8C26,91.5,21.2,90.2,16.7,87.6z M70,89.1
		c-2.8-1.6-5.1-3.8-6.7-6.6c-1.7-2.8-2.5-6-2.5-9.4c0-3.5,0.8-6.6,2.5-9.5c1.7-2.8,3.9-5,6.7-6.6c2.8-1.6,5.9-2.4,9.3-2.4
		c3.4,0,6.5,0.8,9.3,2.4c2.8,1.6,5.1,3.8,6.7,6.6c1.7,2.8,2.5,6,2.5,9.5c0,3.4-0.8,6.6-2.5,9.4c-1.7,2.8-3.9,5-6.7,6.6
		c-2.8,1.6-5.9,2.4-9.3,2.4C75.9,91.5,72.8,90.7,70,89.1z M84.4,82.8c1.6-1,2.9-2.3,3.8-4c1-1.7,1.4-3.6,1.4-5.8
		c0-2.1-0.5-4.1-1.4-5.8c-1-1.7-2.2-3-3.8-4c-1.6-1-3.3-1.4-5.2-1.4c-1.9,0-3.6,0.5-5.2,1.4c-1.6,1-2.9,2.3-3.8,4
		c-1,1.7-1.4,3.6-1.4,5.8c0,2.1,0.5,4.1,1.4,5.8c1,1.7,2.2,3,3.8,4c1.6,1,3.3,1.4,5.2,1.4C81.1,84.2,82.8,83.8,84.4,82.8z
		 M110.4,89.1c-2.8-1.6-5.1-3.8-6.7-6.6c-1.7-2.8-2.5-6-2.5-9.4c0-3.5,0.8-6.6,2.5-9.5c1.7-2.8,3.9-5,6.7-6.6
		c2.8-1.6,5.9-2.4,9.3-2.4s6.5,0.8,9.3,2.4c2.8,1.6,5.1,3.8,6.7,6.6c1.7,2.8,2.5,6,2.5,9.5c0,3.4-0.8,6.6-2.5,9.4
		c-1.7,2.8-3.9,5-6.7,6.6c-2.8,1.6-5.9,2.4-9.3,2.4S113.2,90.7,110.4,89.1z M124.8,82.8c1.6-1,2.9-2.3,3.8-4c1-1.7,1.4-3.6,1.4-5.8
		c0-2.1-0.5-4.1-1.4-5.8c-1-1.7-2.2-3-3.8-4c-1.6-1-3.3-1.4-5.2-1.4s-3.6,0.5-5.2,1.4c-1.6,1-2.9,2.3-3.8,4c-1,1.7-1.4,3.6-1.4,5.8
		c0,2.1,0.5,4.1,1.4,5.8c1,1.7,2.2,3,3.8,4c1.6,1,3.3,1.4,5.2,1.4S123.2,83.8,124.8,82.8z M149,104.8c-2.8-2.2-4.8-4.7-6-7.6
		l7.1-2.9c0.7,1.8,1.9,3.3,3.5,4.6c1.6,1.3,3.5,2,5.8,2c3.1,0,5.5-0.9,7.2-2.8c1.7-1.9,2.6-4.5,2.6-8v-2.7h-0.3c-1,1.2-2.3,2.2-4,3
		c-1.7,0.8-3.6,1.2-5.7,1.2c-3.1,0-6-0.8-8.7-2.4c-2.7-1.6-4.9-3.9-6.5-6.7c-1.7-2.8-2.5-5.9-2.5-9.3c0-3.4,0.8-6.5,2.5-9.3
		c1.7-2.8,3.8-5.1,6.6-6.7c2.7-1.7,5.6-2.5,8.6-2.5c2.1,0,4,0.4,5.7,1.2c1.7,0.8,3,1.8,4,2.9h0.3v-3h7.7v33.1
		c0,6.4-1.6,11.2-4.9,14.4c-3.3,3.2-7.5,4.8-12.6,4.8C155.2,108.1,151.8,107,149,104.8z M164.9,82.8c1.5-1,2.7-2.3,3.6-4
		c0.9-1.7,1.3-3.6,1.3-5.7c0-2.1-0.4-4.1-1.3-5.8c-0.9-1.7-2.1-3-3.6-4c-1.5-1-3.2-1.5-5-1.5c-1.9,0-3.6,0.5-5.1,1.5
		c-1.6,1-2.8,2.3-3.7,4.1c-0.9,1.7-1.4,3.6-1.4,5.7c0,2.1,0.5,4,1.4,5.7c0.9,1.7,2.2,3,3.7,4c1.6,1,3.3,1.4,5.1,1.4
		C161.7,84.2,163.4,83.8,164.9,82.8z M182.5,36.2h8.1v54.2h-8.1V36.2z M203.4,89.1c-2.8-1.6-5-3.9-6.6-6.7c-1.6-2.8-2.4-5.9-2.4-9.3
		c0-3.6,0.8-6.8,2.3-9.6c1.6-2.8,3.7-5,6.3-6.5c2.7-1.6,5.6-2.3,8.7-2.3c4.2,0,7.7,1.2,10.3,3.7c2.6,2.5,4.4,5.1,5.5,8l0.8,2.1
		l-24.7,10.2c1.9,3.7,4.9,5.6,8.9,5.6c3.7,0,6.8-1.7,9.1-5.1l6.3,4.2c-1.4,2.1-3.4,4-5.9,5.7c-2.6,1.7-5.7,2.5-9.4,2.5
		C209.4,91.5,206.2,90.7,203.4,89.1z M219,65.6c-0.5-1.2-1.3-2.1-2.6-2.8c-1.3-0.7-2.7-1.1-4.3-1.1c-1.4,0-2.9,0.4-4.5,1.3
		c-1.5,0.8-2.8,2.1-3.8,3.7c-1,1.6-1.4,3.6-1.4,5.8L219,65.6z"/>
	<path d="M264.5,40.3h10.8l18.8,50h-10.4l-4.2-11.9h-19.1l-4.2,11.9h-10.4L264.5,40.3z M276.5,69.8l-4.4-12.6l-1.8-6h-0.6l-1.8,6
		l-4.5,12.6H276.5z"/>
	<path d="M306.5,49.3h-14v-8.9h37.4v8.9h-14v41.1h-9.4V49.3z"/>
	<path d="M347,40.3h10.8l18.8,50h-10.4L362,78.4h-19.1l-4.2,11.9h-10.4L347,40.3z M358.9,69.8l-4.4-12.6l-1.8-6h-0.6l-1.8,6
		l-4.5,12.6H358.9z"/>
	<path d="M383.4,40.3H401c3.2,0,6.1,0.7,8.7,2c2.6,1.3,4.7,3.2,6.1,5.6c1.5,2.4,2.2,5.1,2.2,8.2s-0.7,5.8-2.2,8.2
		c-1.5,2.4-3.5,4.3-6.1,5.6c-2.6,1.3-5.5,2-8.7,2h-8.2v18.4h-9.4V40.3z M401.3,63.1c2.3,0,4.2-0.7,5.5-2c1.3-1.4,2-3,2-4.9
		c0-1.9-0.7-3.5-2-4.9c-1.3-1.3-3.2-2-5.5-2h-8.5v13.8H401.3z"/>
</g>
</svg>
