<?xml version="1.0" encoding="utf-8"?>
<!-- Generator: Adobe Illustrator 19.0.0, SVG Export Plug-In . SVG Version: 6.00 Build 0)  -->
<svg version="1.1" xmlns="http://www.w3.org/2000/svg" xmlns:xlink="http://www.w3.org/1999/xlink" x="0px" y="0px"
	 viewBox="0 0 101.5 26.2" style="enable-background:new 0 0 101.5 26.2;" xml:space="preserve">
<metadata><?xpacket begin="﻿" id="W5M0MpCehiHzreSzNTczkc9d"?>
<x:xmpmeta xmlns:x="adobe:ns:meta/" x:xmptk="Adobe XMP Core 5.6-c067 79.157747, 2015/03/30-23:40:42        ">
   <rdf:RDF xmlns:rdf="http://www.w3.org/1999/02/22-rdf-syntax-ns#">
      <rdf:Description rdf:about=""/>
   </rdf:RDF>
</x:xmpmeta>
                                                                                                    
                                                                                                    
                                                                                                    
                                                                                                    
                                                                                                    
                                                                                                    
                                                                                                    
                                                                                                    
                                                                                                    
                                                                                                    
                                                                                                    
                                                                                                    
                                                                                                    
                                                                                                    
                                                                                                    
                                                                                                    
                                                                                                    
                                                                                                    
                                                                                                    
                                                                                                    
                           
<?xpacket end="w"?></metadata>
<style type="text/css">
	.st0{fill:#FFFFFF;}
</style>
<g id="Layer_1">
	<g id="XMLID_120_">
		<g id="XMLID_252_">
			<path id="XMLID_264_" class="st0" d="M65.1,0.1h-4.2v15h4.2V0.1z M56.3,14.2h-16V0.1h-4.2v15h20.1V14.2z M29.9,9.5l-4.2-0.1
				c-1,3.1-5,5-10.6,5C8.2,14.4,4.2,12,4.2,7.7C4.2,3.1,9.8,1,15.1,1c4.4,0,9.4,1.6,10.6,5.1L29.9,6C28.6,2.3,23,0,15.1,0
				C5.9,0,0,3,0,7.7c0,6.4,8.2,7.7,15.1,7.7C19,15.4,28.2,14.8,29.9,9.5 M86.4,1c-5.2,0-10.9,2.1-10.9,6.7c0,4.3,4,6.7,10.9,6.7
				c6.6,0,10.9-2.6,10.9-6.7C97.3,3.1,91.7,1,86.4,1 M86.4,15.4c-6.9,0-15.1-1.3-15.1-7.7C71.3,3,77.2,0,86.4,0s15.1,3,15.1,7.7
				C101.5,14.6,90.9,15.4,86.4,15.4"/>
			<path id="XMLID_253_" class="st0" d="M95.6,21.4c-0.3-0.5-0.8-0.8-1.3-0.8c-0.8,0-1.4,0.5-1.4,1.3c0,0.8,0.5,1.1,1.1,1.3l0.3,0.1
				c0.5,0.2,0.9,0.4,0.9,1c0,0.6-0.5,1-1,1c-0.5,0-0.9-0.4-1-1l-0.6,0.2c0.2,0.8,0.8,1.4,1.6,1.4c0.9,0,1.6-0.7,1.6-1.6
				c0-0.8-0.6-1.2-1.2-1.5l-0.3-0.2c-0.3-0.2-0.8-0.4-0.8-0.8c0-0.5,0.4-0.8,0.8-0.8c0.4,0,0.7,0.2,0.9,0.6L95.6,21.4z M76,25.4
				v-4.2h0.4c0.6,0,1.1,0.1,1.6,0.5c0.4,0.4,0.7,1,0.7,1.6c0,0.6-0.2,1.1-0.6,1.5c-0.5,0.5-1,0.5-1.6,0.5H76z M75.4,25.9h0.9
				c0.8,0,1.4-0.1,2-0.7c0.6-0.5,0.8-1.2,0.8-2c0-0.8-0.3-1.5-0.8-2c-0.6-0.5-1.2-0.6-2-0.6h-1V25.9z M59.4,23.6h0.1l1.5,2.3h0.7
				l-1.6-2.4c0.8-0.1,1.3-0.6,1.3-1.4c0-1.2-0.9-1.4-1.9-1.4h-0.7v5.3h0.6V23.6z M59.4,21.2h0.2c0.7,0,1.3,0.1,1.3,0.9
				c0,0.8-0.7,0.9-1.3,0.9h-0.2V21.2z M44,23.9h-1.7l0.9-2.1L44,23.9z M44.2,24.4l0.6,1.5h0.6l-2.3-5.5l-2.4,5.5h0.6l0.6-1.5H44.2z
				 M21.8,20.7h-0.6l2,5.5l1.7-4.2l1.7,4.2l2-5.5h-0.6l-1.3,3.9l-1.7-4.2l-1.7,4.2L21.8,20.7z M7.4,23.9H5.7l0.9-2.1L7.4,23.9z
				 M7.7,24.4l0.6,1.5h0.6l-2.3-5.5l-2.4,5.5h0.6l0.6-1.5H7.7z"/>
		</g>
	</g>
</g>
<g id="Dimension_Layer">
</g>
</svg>
