<?xml version="1.0" encoding="utf-8"?>
<!-- Generator: Adobe Illustrator 19.0.0, SVG Export Plug-In . SVG Version: 6.00 Build 0)  -->
<svg version="1.1" xmlns="http://www.w3.org/2000/svg" xmlns:xlink="http://www.w3.org/1999/xlink" x="0px" y="0px"
	 viewBox="0 0 52.7 75.6" style="enable-background:new 0 0 52.7 75.6;" xml:space="preserve">
<metadata><?xpacket begin="﻿" id="W5M0MpCehiHzreSzNTczkc9d"?>
<x:xmpmeta xmlns:x="adobe:ns:meta/" x:xmptk="Adobe XMP Core 5.6-c067 79.157747, 2015/03/30-23:40:42        ">
   <rdf:RDF xmlns:rdf="http://www.w3.org/1999/02/22-rdf-syntax-ns#">
      <rdf:Description rdf:about=""/>
   </rdf:RDF>
</x:xmpmeta>
                                                                                                    
                                                                                                    
                                                                                                    
                                                                                                    
                                                                                                    
                                                                                                    
                                                                                                    
                                                                                                    
                                                                                                    
                                                                                                    
                                                                                                    
                                                                                                    
                                                                                                    
                                                                                                    
                                                                                                    
                                                                                                    
                                                                                                    
                                                                                                    
                                                                                                    
                                                                                                    
                           
<?xpacket end="w"?></metadata>
<style type="text/css">
	.st0{fill:#FFFFFF;}
</style>
<g id="Layer_1">
	<g id="XMLID_69_">
		<g id="XMLID_546_">
			<line id="XMLID_603_" class="st0" x1="0" y1="9.5" x2="52.7" y2="9.5"/>
			<line id="XMLID_602_" class="st0" x1="0" y1="32.6" x2="52.7" y2="32.6"/>
			<line id="XMLID_601_" class="st0" x1="0" y1="47.1" x2="52.7" y2="47.1"/>
			<line id="XMLID_600_" class="st0" x1="0" y1="61.5" x2="52.7" y2="61.5"/>
			<line id="XMLID_599_" class="st0" x1="0" y1="75.6" x2="52.7" y2="75.6"/>
			<path id="XMLID_588_" class="st0" d="M50,67.7c-0.5-0.3-0.6-0.6-0.6-1.2v-0.4c0-0.7,0.4-1,0.9-1h0.1c0.5,0,0.9,0.4,0.9,1v1h1.2
				V66c0-1.1-0.8-1.9-2.1-1.9h-0.1c-1.3,0-2.1,0.8-2.1,2v0.6c0,1,0.3,1.6,1.1,2l1.4,0.8c0.6,0.3,0.7,0.7,0.7,1.4v0.5
				c0,0.8-0.4,1.2-1,1.2h-0.1c-0.5,0-1-0.4-1-1.2v-1.1h-1.2v1.2c0,1.4,0.8,2.2,2.1,2.2h0.1c1.3,0,2.1-0.8,2.1-2.2v-0.6
				c0-1.3-0.3-1.8-1.1-2.3L50,67.7z M42.8,67.7c-0.5-0.3-0.6-0.6-0.6-1.2v-0.4c0-0.7,0.4-1,0.9-1h0.1c0.5,0,0.9,0.4,0.9,1v1h1.2V66
				c0-1.1-0.8-1.9-2.1-1.9h-0.1c-1.3,0-2.1,0.8-2.1,2v0.6c0,1,0.3,1.6,1.1,2l1.4,0.8c0.6,0.3,0.7,0.7,0.7,1.4v0.5
				c0,0.8-0.4,1.2-1,1.2h-0.1c-0.5,0-1-0.4-1-1.2v-1.1H41v1.2c0,1.4,0.8,2.2,2.1,2.2h0.1c1.3,0,2.1-0.8,2.1-2.2v-0.6
				c0-1.3-0.3-1.8-1.1-2.3L42.8,67.7z M38.1,73.6v-1h-2.1v-3.8h2v-1h-2v-2.6h2.1v-1h-3.3v9.3H38.1z M29.7,73.6h1.8v-9.3h-1.1v8l-2-8
				h-1.8v9.3h1.1v-8L29.7,73.6z M22.2,73.6h1.2v-9.3h-1.2V73.6z M16.6,67.7c-0.5-0.3-0.6-0.6-0.6-1.2v-0.4c0-0.7,0.4-1,0.9-1H17
				c0.5,0,0.9,0.4,0.9,1v1h1.2V66c0-1.1-0.8-1.9-2.1-1.9h-0.1c-1.3,0-2.1,0.8-2.1,2v0.6c0,1,0.3,1.6,1.1,2l1.4,0.8
				c0.6,0.3,0.7,0.7,0.7,1.4v0.5c0,0.8-0.4,1.2-1,1.2h-0.1c-0.5,0-1-0.4-1-1.2v-1.1h-1.2v1.2c0,1.4,0.8,2.2,2.1,2.2H17
				c1.3,0,2.1-0.8,2.1-2.2v-0.6c0-1.3-0.3-1.8-1.1-2.3L16.6,67.7z M11.8,64.2h-1.2v7.2c0,0.8-0.5,1.2-1,1.2H9.5c-0.6,0-1-0.4-1-1.2
				v-7.2H7.4v7.3c0,1.4,0.8,2.2,2.1,2.2h0.1c1.3,0,2.1-0.8,2.1-2.2V64.2z M1.2,68.1v-2.9h0.9c0.6,0,0.9,0.4,0.9,1.3v0.3
				c0,0.7-0.3,1.3-0.9,1.3H1.2z M1.2,72.6v-3.5h0.9c0.7,0,1,0.5,1,1.3v0.8c0,0.8-0.3,1.4-1,1.4H1.2z M0,64.2v9.3h2.3
				c1.4,0,2-1,2-2.4v-0.8c0-1-0.4-1.6-1.2-1.9c0.7-0.2,1.1-0.8,1.1-1.7v-0.3c0-1.3-0.6-2.2-2-2.2H0z"/>
			<path id="XMLID_576_" class="st0" d="M50.8,59.1h1.8v-9.3h-1.1v8l-2-8h-1.8v9.3h1.1v-8L50.8,59.1z M43.5,59.1h1.2v-9.3h-1.2V59.1
				z M37,59.1v-1h-2.1v-3.8h2v-1h-2v-2.6H37v-1h-3.3v9.3H37z M27.7,59.1h3.2v-1h-2v-8.3h-1.2V59.1z M20.7,59.1h1.2v-4.1h1
				c1.4,0,2-1,2-2.4v-0.6c0-1.4-0.6-2.3-2-2.3h-2.2V59.1z M21.8,50.8h0.9c0.6,0,1,0.5,1,1.3v0.6c0,0.8-0.3,1.4-1,1.4h-0.9V50.8z
				 M16.5,57c0,0.8-0.5,1.2-1,1.2h-0.1c-0.6,0-1-0.4-1-1.2v-5.1c0-0.8,0.4-1.2,1-1.2h0.1c0.5,0,1,0.4,1,1.2V57z M13.2,57.1
				c0,1.4,0.8,2.2,2.1,2.2h0.1c1.3,0,2.1-0.8,2.1-2.2v-5.2c0-1.4-0.9-2.2-2.1-2.2h-0.1c-1.3,0-2.1,0.8-2.1,2.2V57.1z M10.3,59.1v-1
				H8.2v-3.8h2v-1h-2v-2.6h2.1v-1H7v9.3H10.3z M0,59.1h1.2v-4.1h1c1.4,0,2-1,2-2.4v-0.6c0-1.4-0.6-2.3-2-2.3H0V59.1z M1.2,50.8h0.9
				c0.6,0,1,0.5,1,1.3v0.6c0,0.8-0.3,1.4-1,1.4H1.2V50.8z"/>
			<path id="XMLID_565_" class="st0" d="M52.7,44.7v-1h-2.1v-3.8h2v-1h-2v-2.6h2.1v-1h-3.3v9.3H52.7z M45,35.4l-1.2,8l-1.3-8h-1.2
				l1.7,9.3h1.6l1.6-9.3H45z M36.8,44.7H38v-9.3h-1.2V44.7z M33.4,36.4v-1h-4v1h1.4v8.3H32v-8.3H33.4z M24.5,36.7l0.8,5.5h-1.6
				L24.5,36.7z M23.3,44.7l0.2-1.5h1.9l0.2,1.5h1.2l-1.5-9.3h-1.6l-1.5,9.3H23.3z M19,44.7v-1h-2.1v-3.8h2v-1h-2v-2.6H19v-1h-3.3
				v9.3H19z M9.2,39.2v-2.9h0.9c0.6,0,0.9,0.4,0.9,1.3v0.3c0,0.8-0.3,1.3-0.9,1.3H9.2z M9.2,40.2h0.9c0.5,0,0.8,0.3,0.8,0.9v3.6h1.2
				v-3.6c0-0.8-0.3-1.3-1-1.5c0.7-0.2,1.1-0.8,1.1-1.8v-0.3c0-1.3-0.5-2.2-2-2.2H8v9.3h1.2V40.2z M4.4,41.4H3.2v1.1
				c0,0.8-0.5,1.2-1,1.2H2.2c-0.6,0-1-0.4-1-1.2v-5.1c0-0.8,0.4-1.2,1-1.2h0.1c0.5,0,1,0.4,1,1.2v0.8h1.2v-0.9
				c0-1.4-0.9-2.2-2.1-2.2H2.1C0.8,35.2,0,36,0,37.4v5.2c0,1.4,0.8,2.2,2.1,2.2h0.1c1.3,0,2.1-0.8,2.1-2.2V41.4z"/>
			<path id="XMLID_559_" class="st0" d="M52.7,13.6v-2h-8v2h2.8v16.7h2.4V13.6H52.7z M35.4,18.6c-1-0.6-1.2-1.2-1.2-2.3v-0.8
				c0-1.3,0.8-2.1,1.8-2.1h0.2c1.1,0,1.8,0.7,1.8,2.1v2h2.3v-2.2c0-2.3-1.5-3.9-4.2-3.9h-0.2c-2.6,0-4.2,1.6-4.2,4v1.2
				c0,2,0.6,3.2,2.1,4l2.8,1.7c1.1,0.6,1.4,1.5,1.4,2.7V26c0,1.7-0.8,2.4-1.9,2.4h-0.2c-1.1,0-1.9-0.7-1.9-2.4v-2.3h-2.3v2.4
				c0,2.7,1.6,4.3,4.2,4.3h0.2c2.6,0,4.2-1.6,4.2-4.3v-1.3c0-2.6-0.5-3.6-2.3-4.6L35.4,18.6z M24.7,26.1c0,1.7-0.9,2.4-2,2.4h-0.2
				c-1.1,0-2-0.7-2-2.4V15.8c0-1.7,0.8-2.4,2-2.4h0.2c1.1,0,2,0.7,2,2.4V26.1z M18.3,26.2c0,2.7,1.7,4.3,4.3,4.3h0.2
				c2.6,0,4.3-1.6,4.3-4.3V15.7c0-2.7-1.7-4.3-4.3-4.3h-0.2c-2.6,0-4.3,1.6-4.3,4.3V26.2z M5.2,30.3h3.1L10.8,13v17.2h2.3V11.6H8.9
				l-2,16l-2.3-16H0.5v18.7h2.2V13.1L5.2,30.3z"/>
			<path id="XMLID_547_" class="st0" d="M3.6,4.6h0.1V2.4H3.6c-0.2,0.8-0.5,1-0.9,1H1.9v-3h1.3c0.8,0,1.2,0.4,1.4,1.5h0.1V0.1H0v0.1
				C0.5,0.3,0.7,0.5,0.7,1v5.6c0,0.5-0.2,0.7-0.7,0.7v0.1h2.8V7.3C2.1,7.2,1.9,7.1,1.9,6.6V3.7h0.8C3.1,3.7,3.4,3.8,3.6,4.6
				 M5.9,4.3H4.7l0.6-1.5L5.9,4.3z M39.1,4.8h-2l1-2.7L39.1,4.8z M21.3,1.9c0.6,0,1,0.5,1,1.9s-0.4,1.9-1,1.9c-0.6,0-1-0.5-1-1.9
				S20.7,1.9,21.3,1.9 M21.3,5.9c1,0,2.2-0.8,2.2-2.2s-1.2-2.2-2.2-2.2c-1,0-2.2,0.8-2.2,2.2S20.3,5.9,21.3,5.9 M27,7.5l2.1-5.9
				l0.2,5c0,0.5-0.2,0.6-0.8,0.7v0.1h5.8V7.3c-0.7-0.1-0.9-0.2-0.9-0.7V4.2c0.2,0,0.5,0,0.6,0c1.4,0,2.6-0.5,2.6-2.1
				c0-1.6-1.2-2.1-2.6-2.1h-2.5v0.1c0.5,0.1,0.7,0.2,0.7,0.7v5.6c0,0.5-0.2,0.7-0.8,0.7h0c-0.6,0-0.9-0.2-0.9-0.7L30.3,1
				c0-0.5,0.2-0.7,0.7-0.8V0.1h-1.7l-1.9,5.3l-1.9-5.3h-1.9v0.1c0.6,0.1,0.7,0.2,0.7,0.8l-0.2,5.4c0,0.5-0.3,0.9-0.8,0.9v0.1h2V7.3
				c-0.5-0.1-0.8-0.4-0.8-0.9l0.2-4.9l2.2,6H27z M8.8,7.6c1.2,0,2.5-0.7,2.5-2.1c0-0.8-0.4-1.5-1.2-2L8.7,2.7c-0.7-0.4-1-0.8-1-1.3
				c0-0.6,0.4-1.1,1.3-1.1c0.4,0,0.7,0.1,1,0.3c0.2,0.2,0.4,0.6,0.6,1.2h0.1V0.2C10.2,0.1,9.7,0,9.1,0C7.9,0,7,0.8,7,2
				c0,0.8,0.4,1.5,1.2,2l1.3,0.7c0.7,0.4,1,0.8,1,1.4c0,0.7-0.7,1.2-1.5,1.2c-0.5,0-1-0.2-1.3-0.5C7.5,6.6,7.3,6.3,7.1,5.9H8V5.8
				c-0.2,0-0.4-0.1-0.6-0.6L5.8,1.3H5.6L4,5.1C3.8,5.6,3.7,5.7,3.4,5.8v0.1h1.4V5.8c-0.5,0-0.7-0.3-0.5-0.6l0.3-0.6H6l0.3,0.8
				c0.1,0.3-0.1,0.4-0.6,0.5v0.1h1.1v1.4C7.4,7.5,8.2,7.6,8.8,7.6 M11,0.1v1.8h0.1c0.2-1.1,0.7-1.5,1.4-1.5H13v6.2
				c0,0.5-0.2,0.7-0.8,0.7v0.1H15V7.3c-0.6-0.1-0.8-0.2-0.8-0.7V0.4h0.4c0.8,0,1.2,0.4,1.4,1.5h0.1V0.1H11z M34,4
				c-0.2,0-0.4,0-0.6,0V0.4H34c1,0,1.4,0.5,1.4,1.8C35.4,3.5,35,4,34,4 M18.2,3.8c0-2.3,1.1-3.5,2.4-3.5c0.7,0,1.2,0.2,1.5,0.5
				c0.2,0.2,0.4,0.5,0.6,1h0.1V0.2C22,0.1,21.3,0,20.7,0c-1.9,0-3.9,1.2-3.9,3.8c0,2.5,2,3.8,3.8,3.8c0.8,0,1.5-0.1,2.1-0.3l0.2-1.4
				l-0.1,0c-0.2,0.3-0.4,0.6-0.6,0.8c-0.5,0.5-1.1,0.7-1.7,0.7C19.3,7.3,18.2,6.1,18.2,3.8 M46.4,1c0-0.5,0.2-0.7,0.4-0.7
				c0.3,0,0.5,0.1,0.7,0.7l1.5,3.5v2.2c0,0.5-0.2,0.7-0.8,0.7v0.1h2.8V7.3c-0.6-0.1-0.8-0.2-0.8-0.7V4.4l1.5-3.3
				c0.3-0.6,0.6-0.8,1-0.9V0.1h-2v0.1c0.7,0.1,0.9,0.3,0.7,0.7l-1.3,2.9l-1.3-3c-0.2-0.4-0.1-0.5,0.7-0.6V0.1h-4.4v0.1
				C45.8,0.3,46,0.5,46,1v4l-3.2-4.9h-1.6v0.1c0.5,0.1,0.7,0.2,0.7,0.7v5.6c0,0.5-0.1,0.7-0.3,0.7c-0.2,0-0.3-0.1-0.5-0.7l-2.4-6.5
				h-0.1l-2.3,6.3c-0.3,0.7-0.6,0.9-1,1v0.1h2.1V7.3c-0.7-0.1-1-0.4-0.8-0.8L37,5.1h2.2l0.5,1.3c0.2,0.6,0.1,0.8-0.5,0.9v0.1h4V7.3
				c-0.7-0.1-0.9-0.2-0.9-0.7v-5l3.9,5.9h0.2V1z"/>
		</g>
	</g>
</g>
<g id="Dimension_Layer">
</g>
</svg>
