<?xml version="1.0" encoding="utf-8"?>
<!-- Generator: Adobe Illustrator 19.0.0, SVG Export Plug-In . SVG Version: 6.00 Build 0)  -->
<svg version="1.1" xmlns="http://www.w3.org/2000/svg" xmlns:xlink="http://www.w3.org/1999/xlink" x="0px" y="0px"
	 viewBox="0 0 189.9 75.2" style="enable-background:new 0 0 189.9 75.2;" xml:space="preserve">
<metadata><?xpacket begin="﻿" id="W5M0MpCehiHzreSzNTczkc9d"?>
<x:xmpmeta xmlns:x="adobe:ns:meta/" x:xmptk="Adobe XMP Core 5.6-c067 79.157747, 2015/03/30-23:40:42        ">
   <rdf:RDF xmlns:rdf="http://www.w3.org/1999/02/22-rdf-syntax-ns#">
      <rdf:Description rdf:about=""/>
   </rdf:RDF>
</x:xmpmeta>
                                                                                                    
                                                                                                    
                                                                                                    
                                                                                                    
                                                                                                    
                                                                                                    
                                                                                                    
                                                                                                    
                                                                                                    
                                                                                                    
                                                                                                    
                                                                                                    
                                                                                                    
                                                                                                    
                                                                                                    
                                                                                                    
                                                                                                    
                                                                                                    
                                                                                                    
                                                                                                    
                           
<?xpacket end="w"?></metadata>
<style type="text/css">
	.st0{fill:#FFFFFF;}
</style>
<g id="Layer_1">
	<g id="XMLID_62_">
		<g id="XMLID_64_">
			<g id="XMLID_551_">
				<path id="XMLID_610_" class="st0" d="M36.4,42.6c0-1.3,0-2.4,0-3.7c0.4,0,0.9-0.1,1.3-0.1c3.2,0,6.4,0.1,9.5-0.1
					c6.3-0.6,11.5-3.4,14.6-9.1c4.8-8.8,1.4-21.7-11.2-24.9c-1.7-0.4-3.5-0.6-5.2-0.6c-2.8-0.1-5.7,0-8.7,0c-0.1-1.2-0.1-2.4,0-3.7
					c0.3,0,0.6-0.1,0.8-0.1c3.4,0,6.8-0.1,10.2,0.1c5.4,0.4,10.1,2.4,14,6.2c3.8,3.8,5.7,8.4,5.9,13.6c0.3,6-1.5,11.2-5.7,15.6
					c-3.6,3.8-8.1,5.9-13.2,6.5c-3.2,0.3-6.5,0.2-9.7,0.3C38.1,42.6,37.3,42.6,36.4,42.6z"/>
				<path id="XMLID_609_" class="st0" d="M96,0.2c1.3,0,2.4,0,3.7,0c0,4,0,8,0,12.1c1.6,0,3.2,0,4.7,0c1.5,0,3,0,4.5,0
					c1.5,0,3.1,0,4.8,0c0,4.7,0,9.3,0,14c4.7,0,9.3,0,14,0c0,5.3,0,10.5,0,15.8c-1.2,0-2.4,0-3.7,0c0-4,0-7.9,0-12
					c-4.7,0-9.3,0-14,0c0-2.4,0-4.7,0-7c0-2.3,0-4.6,0-7c-4.7,0-9.3,0-14,0C96,10.7,96,5.5,96,0.2z"/>
				<path id="XMLID_608_" class="st0" d="M158,0c1.6,0,2.9,0,4.3,0c0.2,0,0.5,0.3,0.6,0.5c0.4,0.6,0.8,1.2,1.2,1.8
					c8.4,12.8,16.7,25.6,25.1,38.4c0.2,0.4,0.4,0.7,0.8,1.2c-1.5,0-2.9,0-4.2,0c-0.2,0-0.5-0.3-0.7-0.6c-0.8-1.1-1.5-2.2-2.2-3.3
					c-8-12.2-16-24.4-23.9-36.7C158.6,0.9,158.3,0.6,158,0z"/>
				<path id="XMLID_607_" class="st0" d="M120.4,64.6c0.7,2.5,1.4,5,2.1,7.5c0.1,0,0.1,0,0.2,0c0.7-2.5,1.3-5,2-7.5
					c0.6,0,1.2,0,1.9,0c-1,3.4-2,6.8-3,10.2c-0.6,0-1.2,0-2,0c-0.7-2.4-1.4-4.9-2.1-7.4c-1.1,2.4-1.6,4.9-2.4,7.4
					c-0.6,0-1.2,0-1.9,0c-0.9-3.4-1.9-6.7-2.8-10.2c0.7,0,1.3,0,1.9,0c0.6,2.5,1.3,5,1.9,7.5c0.1,0,0.1,0,0.2,0
					c0.7-2.5,1.4-5,2.1-7.5C119.1,64.6,119.7,64.6,120.4,64.6z"/>
				<path id="XMLID_606_" class="st0" d="M187.5,49.3c0.7,0,1.2,0,1.8,0c0,3.8,0,7.5,0,11.4c-0.6,0-1.2,0.1-1.8,0
					c-0.3,0-0.6-0.4-0.7-0.7c-1.4-2.2-2.7-4.4-4.1-6.6c-0.2-0.3-0.4-0.6-0.8-0.8c0,2.6,0,5.3,0,8c-0.7,0-1.2,0-1.8,0
					c-0.2-0.8-0.2-10.1,0-11.4c0.1,0,0.3-0.1,0.5-0.1c1.1-0.2,1.8,0.2,2.3,1.2c1.2,2.1,2.5,4.1,3.7,6.1c0.2,0.3,0.4,0.6,0.6,0.9
					c0.1,0,0.2,0,0.2,0c0-1.3,0-2.7,0-4C187.5,52,187.5,50.7,187.5,49.3z"/>
				<path id="XMLID_605_" class="st0" d="M96.6,60.7c-0.7,0-1.3,0-1.9,0c0-3.8,0-7.5,0-11.4c0.6,0,1.2-0.1,1.8,0
					c0.3,0,0.6,0.4,0.7,0.7c1.4,2.2,2.7,4.4,4.1,6.6c0.2,0.3,0.4,0.6,0.8,0.8c0-2.6,0-5.3,0-8c0.7,0,1.2,0,1.8,0c0,3.8,0,7.6,0,11.5
					c-0.6,0-1.1,0-1.7,0c-0.5,0-0.6-0.4-0.8-0.7c-1.4-2.2-2.7-4.4-4.1-6.6c-0.2-0.3-0.4-0.6-0.8-0.8C96.6,55.3,96.6,57.9,96.6,60.7z
					"/>
				<path id="XMLID_604_" class="st0" d="M12,57.3c0-2.6,0-5.3,0-8c0.7,0,1.2,0,1.8,0c0,3.8,0,7.6,0,11.3c-0.1,0.1-0.2,0.1-0.2,0.1
					c-1.8,0.1-1.8,0.1-2.7-1.4c-1.4-2.2-2.8-4.5-4.2-6.8c-0.3,1-0.1,1.9-0.2,2.7c0,0.9,0,1.8,0,2.7c0,0.9,0,1.8,0,2.7
					c-0.4,0-0.6,0.1-0.9,0.1c-0.3,0-0.6,0-0.9,0c0-3.8,0-7.6,0-11.5c0.6,0,1.2-0.1,1.7,0C6.7,49.3,7,49.7,7.2,50
					c1.3,2.1,2.7,4.3,4,6.4c0.2,0.3,0.4,0.6,0.6,0.9C11.9,57.3,11.9,57.3,12,57.3z"/>
				<path id="XMLID_603_" class="st0" d="M49.3,60.7c-0.6,0-1.2,0-1.8,0c0-3.8,0-7.6,0-11.5c0.6,0,1.1,0,1.6,0
					c0.5,0,0.7,0.4,0.9,0.7c1.4,2.2,2.7,4.4,4,6.5c0.2,0.3,0.4,0.6,0.7,0.9c0.2-1.3,0.1-2.6,0.1-3.9c0-1.3,0-2.7,0-4.1
					c0.6,0,1.2,0,1.9,0c0,3.8,0,7.5,0,11.4c-0.6,0-1.2,0.1-1.7,0c-0.3-0.1-0.6-0.4-0.8-0.6c-1.4-2.2-2.7-4.3-4.1-6.5
					c-0.2-0.3-0.4-0.6-0.7-1.1c-0.1,0.5-0.1,0.7-0.1,1c0,2,0,4,0,6.1C49.3,59.9,49.3,60.3,49.3,60.7z"/>
				<path id="XMLID_600_" class="st0" d="M38.1,60.7c-0.7,0-1.3,0-1.8,0c-0.2-0.8-0.3-10.1-0.1-11.4c0.2,0,0.5-0.1,0.7-0.1
					c1.5,0,3.1,0,4.6,0c0.4,0,0.9,0,1.3,0.1c1.2,0.2,2.1,0.8,2.4,2.1c0.3,1.3,0.1,2.5-1,3.4c-0.2,0.1-0.3,0.3-0.6,0.4
					c1.1,0.5,1.4,1.4,1.5,2.5c0.1,1,0.2,1.9,0.3,2.9c-0.5,0-1.2,0-1.9,0c-0.1-0.5-0.2-1-0.2-1.5c-0.1-0.6,0-1.2-0.2-1.7
					c-0.2-0.9-0.7-1.4-1.7-1.4c-1.1,0-2.2,0-3.4,0C38.1,57.6,38.1,59.1,38.1,60.7z M38.2,54.4c1.3,0,2.6,0.2,3.9-0.1
					c1-0.2,1.4-0.8,1.3-1.9c0-0.9-0.5-1.5-1.4-1.6c-1.2-0.1-2.5,0-3.8,0C38.2,52.1,38.2,53.2,38.2,54.4z"/>
				<path id="XMLID_597_" class="st0" d="M131.1,60.6c0-3.8,0-7.6,0-11.3c0.1-0.1,0.3-0.1,0.3-0.1c1.7,0,3.5-0.1,5.2,0.1
					c2,0.1,3.2,1.3,3.9,3.1c0.6,1.7,0.6,3.4,0,5.1c-0.6,1.8-1.8,3-3.6,3.1C135,60.8,133.1,60.6,131.1,60.6z M133.1,59
					c1.1,0,2.2,0.1,3.3,0c1.3-0.2,2.1-1,2.4-2.3c0.2-1.2,0.3-2.4-0.1-3.6c-0.3-0.9-0.9-1.6-1.8-1.9c-1.2-0.4-2.5-0.3-3.8-0.2
					C133.1,53.7,133.1,56.3,133.1,59z"/>
				<path id="XMLID_596_" class="st0" d="M173.1,56.2c0-0.6,0-1,0-1.5c0.8,0,1.6,0,2.4,0c0.8,0,1.6,0,2.4,0c0,2,0,3.9,0,6
					c-0.4,0-0.8,0-1.2,0.1c-0.1-0.4-0.3-0.7-0.4-1.1c-0.2,0.1-0.3,0.2-0.5,0.3c-1.6,1.8-5.3,1.5-7.1-0.6c-1.9-2.2-1.9-6.2-0.1-8.4
					c1.7-2.1,5.2-2.5,7.4-0.9c0.9,0.7,1.4,1.5,1.6,2.9c-0.6,0-1.2,0-1.7,0c-0.4-0.6-0.7-1.2-1.2-1.6c-1.4-1.1-3.6-0.8-4.6,0.6
					c-1.2,1.6-1.2,4.6,0,6.2c0.9,1.2,2.4,1.6,3.9,1.1c1.2-0.4,1.9-1.4,1.9-3C175.1,56.2,174.1,56.2,173.1,56.2z"/>
				<path id="XMLID_593_" class="st0" d="M93,54.9c-0.1,0.8-0.2,1.6-0.4,2.2C91.9,59.5,90,61,87.6,61c-2.5,0-4.5-1.4-5.3-3.8
					c-0.5-1.6-0.5-3.2,0.1-4.8c0.8-2.2,2.7-3.5,5.1-3.5c2.3,0,4.3,1.3,5,3.5C92.8,53.2,92.9,54.1,93,54.9z M91.1,55
					c-0.2-0.8-0.3-1.7-0.7-2.5c-0.5-1.3-1.6-1.9-3-1.9c-1.4,0-2.4,0.7-3,1.9c-0.7,1.6-0.7,3.2-0.1,4.8c0.6,1.3,1.6,2,3,2
					c1.4,0,2.5-0.7,3.1-2.1C90.8,56.5,90.9,55.8,91.1,55z"/>
				<path id="XMLID_592_" class="st0" d="M26,60.7c0-3.8,0-7.6,0-11.4c2.7,0,5.4,0,8.2,0c0,0.3,0.1,0.5,0.1,0.7c0,0.2,0,0.5,0,0.9
					c-2.1,0.1-4.1,0-6.2,0.1c0,1,0,1.9,0,3c1.9,0,3.8,0,5.7,0c0,0.6,0,1,0,1.6c-1.9,0-3.7,0-5.7,0c0,1.2,0,2.2,0,3.4
					c2,0,4.1,0,6.2,0c0,0.6,0,1.1,0,1.7C31.5,60.7,28.8,60.7,26,60.7z"/>
				<path id="XMLID_591_" class="st0" d="M181.7,70.3c0-0.2,0-0.3,0-0.4c0.3-1.7,0.6-3.5,0.9-5.3c2.1,0,4.2,0,6.4,0c0,0.6,0,1.2,0,2
					c-1.5,0-3,0-4.5,0c-0.1,0.6-0.2,1.1-0.4,1.8c1.1-0.5,2-0.7,3-0.5c1.4,0.3,2.3,1.3,2.4,2.7c0.3,2.4-1,4.1-3.5,4.3
					c-0.7,0.1-1.4,0-2-0.1c-1.7-0.3-2.6-1.3-2.8-3.1c0.8,0,1.6,0,2.2,0c0.4,0.4,0.6,0.8,1,1c0.8,0.5,1.7,0.2,2.2-0.4
					c0.5-0.6,0.4-1.7-0.1-2.2c-0.5-0.5-1.7-0.8-2.3-0.2C183.6,70.6,182.7,70.3,181.7,70.3z"/>
				<path id="XMLID_590_" class="st0" d="M161.2,52.5c-0.6,0-1.2,0-1.9,0c-0.2-0.4-0.3-0.8-0.5-1.1c-0.7-1-2.9-1.1-3.7-0.3
					c-0.6,0.6-0.6,1.6,0.1,2.1c0.3,0.2,0.7,0.4,1.1,0.5c1,0.3,2,0.5,2.9,0.8c1.5,0.4,2.3,1.4,2.4,2.7c0.1,1.6-0.6,2.8-2,3.4
					c-1.7,0.7-3.4,0.7-5.1,0c-1.5-0.6-2.3-1.9-2.2-3.6c0.6,0,1.2,0,1.8,0c0.6,2,1.9,2.8,3.9,2.3c0.3-0.1,0.6-0.2,0.8-0.3
					c0.5-0.3,0.8-0.8,0.7-1.5c0-0.6-0.4-1.1-1-1.3c-1-0.3-1.9-0.5-2.9-0.8c-0.4-0.1-0.8-0.2-1.2-0.4c-2.4-0.9-2.2-4-0.5-5.2
					c1.6-1.1,4.4-1.1,6,0.1C160.8,50.5,161.2,51.4,161.2,52.5z"/>
				<path id="XMLID_589_" class="st0" d="M151.1,59c0,0.7,0,1.2,0,1.7c-2.8,0-5.5,0-8.3,0c0-3.8,0-7.5,0-11.3
					c0.8-0.2,6.6-0.3,8.1-0.1c0,0.5,0,0.9,0,1.6c-2,0-4.1,0-6.1,0c0,1.1,0,2,0,3c1.9,0,3.8,0,5.7,0c0,0.6,0,1,0,1.6
					c-1.9,0-3.7,0-5.7,0c0,1.2,0,2.2,0,3.4C146.9,59,148.9,59,151.1,59z"/>
				<path id="XMLID_588_" class="st0" d="M76.2,74.8c-1.9,0.2-1.9,0.2-2.9-1.3c-1.1-1.7-2.2-3.4-3.3-5.1c-0.2-0.3-0.4-0.6-0.8-0.8
					c0,2.4,0,4.7,0,7.2c-0.6,0-1.2,0-1.8,0c0-3.4,0-6.7,0-10.2c0.5,0,1.1-0.1,1.7,0c0.3,0.1,0.6,0.4,0.7,0.7
					c1.3,1.9,2.5,3.8,3.7,5.7c0.2,0.3,0.4,0.6,0.6,0.8c0.1,0,0.1,0,0.2-0.1c0-2.4,0-4.7,0-7.1c0.7,0,1.2,0,1.8,0
					C76.2,68,76.2,71.4,76.2,74.8z"/>
				<path id="XMLID_585_" class="st0" d="M148.5,74.9c0-3.5,0-6.8,0-10.3c0.3,0,0.6-0.1,0.8-0.1c1.2,0,2.5,0,3.7,0
					c2.7,0,4.4,1.5,4.7,4.2c0.1,1.1,0.1,2.1-0.3,3.1c-0.6,1.8-1.9,2.8-3.7,3c-0.5,0.1-0.9,0-1.4,0C151.1,74.9,149.8,74.9,148.5,74.9
					z M150.4,73.3c1,0,2,0.1,2.9,0c1.4-0.2,2.3-1,2.5-2.4c0.1-0.9,0.1-1.8-0.1-2.7c-0.2-1-0.9-1.7-1.9-2c-1.1-0.3-2.3-0.3-3.4-0.1
					C150.4,68.5,150.4,70.9,150.4,73.3z"/>
				<path id="XMLID_582_" class="st0" d="M111.7,49.3c1.5,3.8,2.9,7.6,4.4,11.4c-0.8,0-1.4,0-2.1,0c-0.4-1-0.7-1.9-1.1-2.9
					c-1.5,0-3.1,0-4.6,0c-0.4,1-0.7,2-1.1,2.9c-0.7,0-1.3,0-2,0c0.2-0.5,0.3-0.8,0.4-1.2c1.2-3.1,2.3-6.1,3.5-9.2
					c0.5-1.2,0.3-1.1,1.6-1.1C111,49.2,111.3,49.2,111.7,49.3z M110.7,51.4c-0.8,1.6-1.4,3.1-1.8,4.6c1.5,0.2,2.6,0.1,3.4-0.1
					C111.8,54.4,111.3,52.9,110.7,51.4z"/>
				<path id="XMLID_579_" class="st0" d="M62.2,49.3c0.2-0.1,0.2-0.1,0.3-0.1c1.8-0.1,1.8-0.1,2.5,1.5c1.1,2.9,2.2,5.8,3.3,8.7
					c0.1,0.4,0.3,0.7,0.4,1.2c-0.7,0-1.4,0-2.1,0c-0.3-0.9-0.7-1.9-1.1-2.9c-1.5,0-3.1,0-4.6,0c-0.4,1-0.7,2-1.1,2.9
					c-0.7,0-1.3,0-2,0C59.3,56.8,60.8,53,62.2,49.3z M65,56.1c-0.6-1.6-1-3.2-1.9-4.6c-0.5,1.5-1.1,3-1.6,4.6
					C62.8,56.1,63.8,56.1,65,56.1z"/>
				<path id="XMLID_576_" class="st0" d="M139.5,70.6c0,1.5,0,2.8,0,4.2c-0.6,0-1.1,0-1.7,0c0-3.4,0-6.8,0-10.2
					c0.3,0,0.5-0.1,0.7-0.1c1.5,0,3,0,4.4,0c0.3,0,0.6,0,1,0.1c1.2,0.2,2.2,0.7,2.5,1.9c0.3,1.3,0.1,2.5-1.2,3.2
					c-0.1,0-0.1,0.1-0.2,0.3c1.1,0.4,1.3,1.4,1.3,2.4c0,0.8,0.2,1.6,0.3,2.4c-0.5,0-1.1,0-1.8,0c-0.1-0.4-0.2-0.8-0.2-1.3
					c0-0.4,0-0.7-0.1-1.1c-0.1-1.2-0.6-1.8-1.8-1.9C141.7,70.6,140.7,70.6,139.5,70.6z M139.6,66c0,1.1,0,2.1,0,3.2
					c1.2,0,2.4,0.1,3.6,0c0.9-0.1,1.4-0.7,1.4-1.6c0-0.9-0.5-1.5-1.5-1.5C142,65.9,140.8,66,139.6,66z"/>
				<path id="XMLID_575_" class="st0" d="M0,74.8c0-3.4,0-6.8,0-10.2c2.6,0,5.1,0,7.7,0c0,0.4,0,0.8,0,1.4c-0.9,0.2-1.9,0.1-2.8,0.1
					c-1,0-1.9,0-2.9,0c-0.2,0.9-0.1,1.8-0.1,2.7c1.8,0,3.6,0,5.4,0c0,0.5,0,0.9,0,1.5c-1.8,0-3.5,0-5.4,0c0,1.1,0,2,0,3
					c2,0,3.9,0,5.9,0c0,0.6,0,1,0,1.5C5.2,74.8,2.7,74.8,0,74.8z"/>
				<path id="XMLID_574_" class="st0" d="M167.4,67.5c-0.7,0-1.2,0-1.6,0c-0.5-0.6-0.7-1.2-1.2-1.4c-0.5-0.3-1.2-0.3-1.9-0.3
					c-0.3,0-0.6,0.1-0.9,0.3c-0.8,0.5-0.9,1.5-0.1,2c0.4,0.2,0.8,0.3,1.2,0.5c0.9,0.2,1.8,0.4,2.7,0.7c1.3,0.4,2,1.3,2.1,2.5
					c0.1,1.2-0.5,2.3-1.7,2.8c-1.8,0.8-3.6,0.8-5.3,0c-1.3-0.6-1.8-1.6-1.8-3.1c0.5,0,1.1,0,1.6,0c0,0,0.1,0.1,0.1,0.1
					c0.6,1.8,2.5,2.6,4.2,1.8c0.6-0.3,0.9-0.7,0.9-1.3c0-0.7-0.4-1.1-1-1.3c-0.9-0.3-1.7-0.4-2.6-0.7c-0.5-0.1-1.1-0.3-1.5-0.5
					c-1.6-0.8-2-2.9-0.6-4.2c0.5-0.5,1.2-0.8,1.9-1c1.2-0.4,2.4-0.2,3.6,0.3C166.7,65.3,167.4,66.1,167.4,67.5z"/>
				<path id="XMLID_573_" class="st0" d="M38.5,74.8c-2.6,0-5.2,0-7.8,0c0-3.4,0-6.8,0-10.2c2.6,0,5.1,0,7.7,0c0,0.5,0,0.9,0,1.5
					c-1.9,0-3.9,0-5.8,0c0,1,0,1.8,0,2.7c1.8,0,3.5,0,5.4,0c0,0.5,0,0.9,0,1.5c-1.8,0-3.5,0-5.3,0c0,1.1,0,2,0,3.1c2,0,3.9,0,5.9,0
					C38.5,73.9,38.5,74.3,38.5,74.8z"/>
				<path id="XMLID_572_" class="st0" d="M65.8,73.4c0,0.5,0,0.9,0,1.4c-2.6,0-5.2,0-7.9,0c0-3.4,0-6.7,0-10.1
					c0.8-0.2,6.1-0.3,7.7-0.1c0,0.2,0.1,0.5,0.1,0.7c0,0.2,0,0.4-0.1,0.8c-1.9,0-3.8,0-5.8,0c0,0.9,0,1.8,0,2.7c1.8,0,3.5,0,5.4,0
					c0,0.6,0,1,0,1.5c-1.8,0-3.6,0-5.4,0c0,1,0,2,0,3C61.8,73.5,63.7,73.2,65.8,73.4z"/>
				<path id="XMLID_571_" class="st0" d="M89.8,64.6c2.5,0,5,0,7.6,0c0,0.5,0,0.9,0,1.5c-1.9,0-3.8,0-5.7,0c-0.3,1-0.2,1.8-0.1,2.7
					c1.8,0,3.5,0,5.4,0c0,0.5,0,0.9,0,1.5c-1.8,0-3.5,0-5.4,0c0,1.1,0,2,0,3c2,0,3.9,0,5.9,0c0,0.6,0,1,0,1.5c-2.6,0-5.1,0-7.7,0
					C89.6,74,89.5,65.7,89.8,64.6z"/>
				<path id="XMLID_570_" class="st0" d="M13.4,70.9c-1,1.4-1.9,2.6-2.8,3.9c-0.7,0-1.3,0-2.2,0c1.3-1.8,2.5-3.5,3.8-5.3
					c-1.2-1.6-2.3-3.2-3.6-5c0.6,0,1,0,1.5,0c0.6-0.1,0.9,0.2,1.2,0.6c0.6,1,1.3,1.9,2,3c0.3-0.3,0.5-0.6,0.7-0.9
					c0.4-0.5,0.7-1,1.1-1.5c1-1.4,1-1.4,2.9-1.1c-1.2,1.7-2.3,3.2-3.5,4.9c1.2,1.7,2.5,3.4,3.7,5.1c-0.1,0.1-0.2,0.2-0.2,0.2
					c-1.9,0.1-1.9,0.1-3-1.4C14.5,72.6,14,71.9,13.4,70.9z"/>
				<path id="XMLID_569_" class="st0" d="M86.1,71c0.4,0,0.8,0,1.2,0c0.1,0,0.3,0,0.4,0c0.2,1.5-0.7,2.9-2.2,3.6
					c-3.3,1.6-7.1-0.5-7.4-4.1c-0.1-0.7-0.1-1.4,0.1-2c0.9-4.5,5.6-4.9,8-3.4c0.9,0.6,1.5,1.4,1.7,2.6c-0.6,0-1.1,0-1.8,0
					c0-0.1-0.2-0.2-0.2-0.4c-0.9-2.1-4-2-5.1-0.3c-1,1.4-1,3.9,0,5.3c0.7,1,1.8,1.4,3,1.3c1.2-0.1,1.9-0.9,2.2-1.9
					C85.9,71.4,86,71.2,86.1,71z"/>
				<path id="XMLID_568_" class="st0" d="M28.8,67.7c-0.6,0-1.2,0-1.8,0c-0.1-0.1-0.2-0.2-0.2-0.4c-0.5-1.1-1.4-1.6-2.6-1.6
					c-1.2,0-2.2,0.5-2.7,1.6c-0.8,1.5-0.8,3-0.1,4.5c0.6,1.3,1.7,1.9,3.2,1.8c1.3-0.1,2.1-0.9,2.4-2.1c0-0.1,0.1-0.3,0.1-0.5
					c0.6,0,1.1,0,1.7,0c0.2,1.6-1.2,3.7-3.7,4c-2.4,0.3-4.4-0.7-5.4-2.7c-1.1-2.1-0.7-4.9,0.8-6.6c1.7-1.8,5-2.1,7-0.6
					C28.2,65.8,28.5,66.4,28.8,67.7z"/>
				<path id="XMLID_565_" class="st0" d="M130.3,64.5c0.7,0,1.3,0,2,0c1.4,3.4,2.8,6.8,4.2,10.3c-0.7,0-1.3,0-2,0
					c-0.2-0.6-0.5-1.3-0.8-2c-0.2-0.5-0.4-0.7-0.9-0.7c-1,0-2,0-3,0c-0.5,0-0.7,0.2-0.9,0.6c-0.2,0.7-0.5,1.4-0.8,2.1
					c-0.6,0-1.2,0-1.9,0C127.6,71.4,129,68,130.3,64.5z M131.5,66.5c-0.1,0-0.2,0-0.2,0c-0.5,1.4-1,2.7-1.5,4.2c1.2,0,2.2,0,3.3,0
					C132.5,69.3,132,67.9,131.5,66.5z"/>
				<path id="XMLID_562_" class="st0" d="M102.3,74.8c1.4-3.5,2.8-6.8,4.1-10.3c0.7,0,1.4,0,2.1,0c1.4,3.4,2.8,6.8,4.2,10.3
					c-0.7,0-1.3,0-2,0c-0.4-0.9-0.7-1.8-1.1-2.7c-1.3,0-2.6,0-3.8,0c-0.4,0-0.6,0.2-0.7,0.5c-0.3,0.7-0.5,1.4-0.8,2.2
					C103.6,74.8,103,74.8,102.3,74.8z M107.6,66.6c-0.1,0-0.2,0-0.3,0c-0.5,1.3-1,2.6-1.5,4.1c1.2,0,2.1,0,3.3,0
					C108.6,69.3,108.1,67.9,107.6,66.6z"/>
				<path id="XMLID_561_" class="st0" d="M20.9,60.7c-0.7,0-1.3,0-2,0c0-3.2,0-6.4,0-9.7c-1.3,0-2.4,0-3.6,0c0-0.6,0-1.1,0-1.7
					c3,0,6,0,9.1,0c0,0.5,0,1,0,1.6c-1.2,0-2.3,0.1-3.6,0.1C20.9,54.2,20.9,57.4,20.9,60.7z"/>
				<path id="XMLID_560_" class="st0" d="M71,51c-1.3,0-2.4,0-3.6,0c0-0.6,0-1.1,0-1.7c3,0,6.1,0,9.2,0c0,0.3,0.1,0.5,0.1,0.8
					c0,0.2,0,0.5,0,0.9c-1.2,0-2.3,0-3.6,0c0,3.3,0,6.5,0,9.8c-0.7,0-1.3,0-2,0C71,57.5,71,54.3,71,51z"/>
				<path id="XMLID_559_" class="st0" d="M117.3,49.3c0.7,0,1.3,0,2,0c0,3.2,0,6.4,0,9.7c2,0.2,3.9,0,5.8,0.2c0,0.5,0,1,0,1.6
					c-2.6,0-5.1,0-7.7,0C117.3,56.9,117.3,53.1,117.3,49.3z"/>
				<path id="XMLID_558_" class="st0" d="M180.3,74.8c-0.9,0-1.6,0-2.5,0c0-2.1,0-4.1,0-6.2c-0.9,0-1.6-0.1-2.5-0.1
					c0-0.6-0.1-1.1-0.1-1.7c1.5-0.2,2.8-0.5,3.1-2.2c0.6,0,1.3,0,2,0C180.3,68,180.3,71.4,180.3,74.8z"/>
				<path id="XMLID_557_" class="st0" d="M56.5,73.3c0,0.6,0,1,0,1.4c-0.7,0.2-5.4,0.3-7.3,0.1c-0.2-0.8-0.3-8.4-0.1-10.2
					c0.5,0,1.1,0,1.8,0c0,1.4,0,2.8,0,4.3c0,1.4,0,2.9,0,4.4C52.8,73.3,54.6,73.3,56.5,73.3z"/>
				<path id="XMLID_556_" class="st0" d="M42.2,64.6c0,3,0,5.8,0,8.8c1.9,0,3.6,0,5.5,0c0,0.5,0,0.9,0,1.3c-0.7,0.2-6,0.3-7.3,0
					c0-3.4,0-6.7,0-10.1c0.3,0,0.6-0.1,0.9-0.1C41.4,64.5,41.7,64.5,42.2,64.6z"/>
				<path id="XMLID_555_" class="st0" d="M163.4,60.7c0-3.8,0-7.6,0-11.4c0.6,0,1.2,0,1.9,0c0,3.8,0,7.5,0,11.4
					C164.7,60.7,164.1,60.7,163.4,60.7z"/>
				<path id="XMLID_554_" class="st0" d="M78.1,60.7c0-3.9,0-7.6,0-11.4c0.6,0,1.2,0,1.8,0C80.1,50,80.2,59,80,60.7
					c-0.3,0-0.6,0.1-0.9,0.1C78.8,60.8,78.5,60.7,78.1,60.7z"/>
				<path id="XMLID_553_" class="st0" d="M2.1,49.3c0,3.8,0,7.5,0,11.4c-0.6,0-1.2,0-1.8,0c-0.2-0.8-0.3-10-0.1-11.4
					C0.9,49.3,1.5,49.3,2.1,49.3z"/>
				<path id="XMLID_552_" class="st0" d="M171.5,70c0-0.4,0-0.7,0-0.9c0.4-0.5,0.8-0.9,1.2-1.5c-0.5-0.2-0.8-0.3-1.2-0.4
					c0-0.9,0-1.7,0-2.7c0.8,0,1.5,0,2.3,0c0,1.2,0.2,2.3-0.1,3.4C173.5,69.1,172.8,69.8,171.5,70z"/>
			</g>
		</g>
		<rect id="XMLID_63_" x="0.2" y="0.2" class="st0" width="3.6" height="41.7"/>
	</g>
</g>
<g id="Dimension_Layer">
</g>
</svg>
