<svg xmlns="http://www.w3.org/2000/svg" viewBox="0 0 80 52"><path d="M6.896 6.804L5.424 2.805l-.45-1.193h-.061l-.434 1.193-1.472 3.999h3.89zM4.2 0h1.487l4.216 11.096H8.46L7.346 8.043H2.557l-1.116 3.053H0L4.2 0zM15.52 9.779c.398-.248.718-.6.961-1.054.243-.454.365-.981.365-1.58 0-.6-.122-1.127-.365-1.581a2.722 2.722 0 0 0-.96-1.054 2.402 2.402 0 0 0-1.294-.372c-.456 0-.884.124-1.287.372a2.689 2.689 0 0 0-.969 1.061c-.242.46-.363.985-.363 1.574 0 .588.12 1.113.363 1.572.243.46.566.814.97 1.062a2.41 2.41 0 0 0 1.286.372c.464 0 .896-.124 1.293-.372m-3.362 1.023a3.799 3.799 0 0 1-1.356-1.496c-.331-.635-.496-1.356-.496-2.161 0-.796.165-1.514.496-2.155a3.79 3.79 0 0 1 1.356-1.503 3.516 3.516 0 0 1 1.914-.542c.61 0 1.152.137 1.626.41.476.274.838.612 1.086 1.015h.062l-.062-1.1V0H18.1v11.096h-1.255V9.934h-.062c-.248.393-.61.726-1.086 1-.474.273-1.017.41-1.626.41-.703 0-1.341-.18-1.914-.542M19.03 3.193h1.411l2.448 6.353h.031l2.48-6.353h1.379l-3.223 7.903h-1.333zM31.444 9.84c.382-.226.687-.531.914-.914.227-.381.341-.8.341-1.255a3.261 3.261 0 0 0-.914-.403 4.159 4.159 0 0 0-1.147-.155c-.724 0-1.269.15-1.635.45-.367.3-.55.687-.55 1.162 0 .434.165.785.496 1.054.33.269.748.403 1.255.403a2.38 2.38 0 0 0 1.24-.341m-2.914 1.162a2.557 2.557 0 0 1-1.054-.937 2.515 2.515 0 0 1-.372-1.356c0-.837.315-1.49.946-1.96.63-.47 1.426-.706 2.386-.706.475 0 .917.052 1.326.155.408.103.72.223.937.357v-.48c0-.59-.207-1.063-.62-1.419-.413-.356-.935-.534-1.565-.534-.445 0-.852.095-1.224.286a2.24 2.24 0 0 0-.884.798l-.992-.743c.31-.476.736-.848 1.279-1.117a4.013 4.013 0 0 1 1.805-.402c1.075 0 1.92.281 2.534.844.615.564.922 1.33.922 2.301v5.006H32.7V9.965h-.062c-.227.382-.568.708-1.023.976a2.958 2.958 0 0 1-1.534.403c-.579 0-1.095-.114-1.55-.34M35.628 3.193h1.255v1.162h.062c.217-.392.563-.726 1.038-1 .476-.273.982-.41 1.52-.41.95 0 1.675.276 2.177.829.5.552.751 1.304.751 2.255v5.067h-1.317V6.23c0-.733-.176-1.265-.527-1.596-.351-.33-.832-.496-1.441-.496-.424 0-.803.119-1.14.356-.335.239-.596.55-.782.938a2.777 2.777 0 0 0-.279 1.217v4.447h-1.317V3.193zM45.685 10.794a3.838 3.838 0 0 1-1.425-1.503c-.342-.635-.512-1.35-.512-2.146 0-.796.17-1.514.512-2.155a3.77 3.77 0 0 1 1.425-1.503c.61-.361 1.297-.542 2.062-.542.857 0 1.578.199 2.162.596.583.398 1 .928 1.247 1.589l-1.193.496c-.197-.486-.488-.855-.876-1.108-.387-.253-.855-.38-1.403-.38-.464 0-.898.127-1.301.38a2.752 2.752 0 0 0-.969 1.061c-.243.455-.364.977-.364 1.566 0 .589.121 1.11.364 1.565.243.455.566.808.969 1.061.403.253.837.38 1.301.38.559 0 1.039-.13 1.442-.387.403-.259.702-.625.898-1.101l1.178.496c-.269.65-.7 1.178-1.293 1.581-.595.403-1.316.604-2.162.604-.765 0-1.452-.183-2.062-.55M58.192 6.307a2.578 2.578 0 0 0-.28-.991 2.119 2.119 0 0 0-.782-.837c-.356-.227-.803-.34-1.34-.34-.62 0-1.145.198-1.573.596-.43.398-.71.922-.844 1.572h4.819zm-4.308 4.495a3.763 3.763 0 0 1-1.403-1.496c-.336-.635-.503-1.35-.503-2.146 0-.764.157-1.467.472-2.108a3.834 3.834 0 0 1 1.34-1.534c.58-.382 1.25-.573 2.015-.573.775 0 1.446.173 2.015.519a3.454 3.454 0 0 1 1.31 1.433c.304.61.457 1.307.457 2.093 0 .155-.016.29-.047.403h-6.246c.032.599.176 1.105.434 1.518.258.413.587.723.984.93.398.207.814.31 1.248.31 1.012 0 1.793-.475 2.34-1.426l1.116.542a3.975 3.975 0 0 1-1.387 1.52c-.583.371-1.289.557-2.116.557-.753 0-1.43-.18-2.03-.542zM65.84 9.779c.397-.248.717-.6.96-1.054.243-.454.364-.981.364-1.58 0-.6-.121-1.127-.364-1.581a2.722 2.722 0 0 0-.96-1.054 2.404 2.404 0 0 0-1.295-.372c-.455 0-.883.124-1.286.372a2.688 2.688 0 0 0-.968 1.061c-.243.46-.364.985-.364 1.574 0 .588.12 1.113.364 1.572.242.46.565.814.968 1.062.403.248.831.372 1.286.372.465 0 .896-.124 1.294-.372m-3.362 1.023a3.798 3.798 0 0 1-1.356-1.496c-.331-.635-.497-1.356-.497-2.161 0-.796.166-1.514.497-2.155a3.79 3.79 0 0 1 1.356-1.503 3.517 3.517 0 0 1 1.913-.542c.61 0 1.153.137 1.627.41.476.274.837.612 1.085 1.015h.062l-.062-1.1V0h1.318v11.096h-1.256V9.934h-.062c-.248.393-.61.726-1.085 1-.474.273-1.017.41-1.627.41-.702 0-1.34-.18-1.913-.542"/><g><path d="M3.285 19.502H.17v-1.255h7.532v1.255h-3.1v9.84H3.285zM13.498 24.554c-.02-.33-.114-.66-.279-.991a2.124 2.124 0 0 0-.782-.837c-.357-.227-.804-.34-1.341-.34-.62 0-1.144.198-1.573.596-.429.398-.71.922-.845 1.572h4.82zM9.19 29.05a3.766 3.766 0 0 1-1.403-1.496c-.335-.635-.503-1.35-.503-2.146 0-.764.157-1.467.472-2.108a3.83 3.83 0 0 1 1.34-1.534c.58-.382 1.25-.573 2.016-.573.774 0 1.446.173 2.014.519a3.45 3.45 0 0 1 1.31 1.433c.304.61.457 1.307.457 2.092 0 .156-.016.29-.047.404H8.601c.031.599.176 1.105.434 1.518.258.413.586.723.984.93.398.207.814.31 1.248.31 1.012 0 1.792-.475 2.34-1.426l1.115.542a3.975 3.975 0 0 1-1.387 1.52c-.583.371-1.288.557-2.115.557-.754 0-1.431-.18-2.03-.542zM17.868 29.041a3.838 3.838 0 0 1-1.426-1.503c-.341-.635-.511-1.35-.511-2.146 0-.796.17-1.514.511-2.155a3.77 3.77 0 0 1 1.426-1.503c.61-.361 1.297-.542 2.062-.542.856 0 1.577.199 2.161.596.584.398 1 .928 1.248 1.589l-1.194.496c-.196-.486-.488-.855-.875-1.108-.388-.253-.855-.38-1.403-.38-.465 0-.899.127-1.302.38a2.752 2.752 0 0 0-.968 1.061c-.243.455-.364.977-.364 1.566 0 .589.121 1.11.364 1.565.242.455.566.808.968 1.061.403.253.837.38 1.302.38.558 0 1.039-.13 1.442-.387.402-.259.702-.625.898-1.101l1.178.496c-.269.65-.7 1.178-1.294 1.581-.594.403-1.315.604-2.161.604-.765 0-1.453-.183-2.062-.55M24.656 18.247h1.317v3.27l-.062 1.085h.062c.217-.403.56-.739 1.03-1.008.47-.268.984-.402 1.543-.402.96 0 1.694.281 2.2.844.506.563.76 1.31.76 2.24v5.067h-1.318v-4.866c0-.713-.18-1.24-.542-1.58-.362-.341-.832-.512-1.41-.512-.414 0-.793.124-1.14.372-.346.248-.62.568-.82.96a2.65 2.65 0 0 0-.303 1.225v4.401h-1.317V18.247zM33.241 21.44h1.256v1.162h.061c.217-.392.564-.726 1.038-1 .476-.273.982-.41 1.52-.41.95 0 1.676.276 2.177.829.501.552.751 1.304.751 2.255v5.067h-1.316v-4.866c0-.733-.177-1.265-.528-1.596-.351-.33-.832-.496-1.441-.496-.424 0-.803.119-1.14.356a2.4 2.4 0 0 0-.782.938 2.781 2.781 0 0 0-.279 1.217v4.447h-1.317V21.44zM46.778 28.034a2.69 2.69 0 0 0 1.007-1.046c.253-.455.38-.987.38-1.597 0-.609-.127-1.14-.38-1.596a2.659 2.659 0 0 0-2.363-1.41 2.698 2.698 0 0 0-2.379 1.41c-.253.455-.38.987-.38 1.596 0 .61.127 1.142.38 1.597a2.694 2.694 0 0 0 2.379 1.41c.485 0 .937-.121 1.356-.364m-3.448 1a3.903 3.903 0 0 1-1.45-1.52 4.39 4.39 0 0 1-.518-2.123c0-.774.172-1.482.519-2.123.346-.64.83-1.147 1.449-1.518.62-.372 1.317-.558 2.092-.558.775 0 1.472.186 2.092.558.62.371 1.103.878 1.45 1.518.345.641.518 1.349.518 2.123 0 .776-.173 1.483-.519 2.124a3.902 3.902 0 0 1-1.45 1.518c-.619.372-1.316.558-2.091.558-.775 0-1.472-.186-2.092-.558M50.784 29.343h1.317V18.247h-1.317zM58.82 28.034a2.69 2.69 0 0 0 1.007-1.046c.253-.455.38-.987.38-1.597 0-.609-.127-1.14-.38-1.596a2.659 2.659 0 0 0-2.363-1.41 2.697 2.697 0 0 0-2.38 1.41c-.253.455-.379.987-.379 1.596 0 .61.126 1.142.38 1.597a2.694 2.694 0 0 0 2.38 1.41c.484 0 .936-.121 1.355-.364m-3.449 1a3.901 3.901 0 0 1-1.449-1.52 4.39 4.39 0 0 1-.519-2.123c0-.774.173-1.482.52-2.123.345-.64.829-1.147 1.448-1.518.62-.372 1.318-.558 2.093-.558.774 0 1.472.186 2.092.558.62.371 1.102.878 1.449 1.518.346.641.519 1.349.519 2.123 0 .776-.173 1.483-.52 2.124a3.901 3.901 0 0 1-1.448 1.518c-.62.372-1.318.558-2.092.558-.775 0-1.473-.186-2.093-.558M67.668 27.948c.388-.237.698-.578.93-1.022.232-.445.349-.972.349-1.581 0-.62-.117-1.152-.349-1.596a2.5 2.5 0 0 0-.93-1.015 2.468 2.468 0 0 0-1.294-.349c-.475 0-.91.119-1.301.356a2.536 2.536 0 0 0-.938 1.023c-.233.444-.349.971-.349 1.58 0 .61.116 1.14.35 1.59.232.449.544.79.937 1.022.392.233.826.349 1.301.349.476 0 .907-.119 1.294-.357m-3.595 4.34c-.605-.434-1.01-.956-1.217-1.566l1.194-.51c.175.454.467.823.875 1.107.408.284.891.427 1.45.427.815 0 1.448-.239 1.898-.713.449-.476.674-1.147.674-2.015v-.884h-.062c-.258.404-.623.731-1.093.985-.47.253-1.004.38-1.604.38a3.458 3.458 0 0 1-1.867-.528 3.732 3.732 0 0 1-1.34-1.472c-.331-.63-.497-1.348-.497-2.154 0-.796.166-1.51.496-2.146a3.72 3.72 0 0 1 1.34-1.48 3.458 3.458 0 0 1 1.868-.527c.6 0 1.134.126 1.604.38.47.252.835.586 1.093.999h.062V21.44h1.255v7.593c0 1.271-.352 2.24-1.053 2.906-.703.667-1.628 1-2.775 1-.93 0-1.696-.217-2.301-.651M74.417 28.848l-3.27-7.408h1.425l2.48 5.873h.031l2.387-5.873h1.426l-4.882 11.25H72.65z"/></g><g><path d="M6.307 45.823l-3.192-4.2a2.834 2.834 0 0 0-1.07.985c-.268.418-.402.86-.402 1.325a2.619 2.619 0 0 0 1.387 2.363c.429.232.9.349 1.418.349.754 0 1.373-.274 1.86-.822zm1.457-.108l1.054 1.379-.992.744-.79-1.054a3.585 3.585 0 0 1-2.588 1.054 4.1 4.1 0 0 1-2.023-.512 3.842 3.842 0 0 1-1.457-1.402 3.767 3.767 0 0 1-.534-1.976c0-.65.175-1.268.527-1.852a4.245 4.245 0 0 1 1.425-1.433l-.015-.016a5.136 5.136 0 0 1-.604-.968 2.158 2.158 0 0 1-.202-.907c0-.455.119-.876.357-1.263.237-.387.558-.695.96-.922a2.638 2.638 0 0 1 1.318-.341c.62 0 1.141.178 1.565.534.423.357.723.804.899 1.341l-1.131.604a2.915 2.915 0 0 0-.504-.875c-.202-.233-.478-.349-.83-.349-.382 0-.696.116-.945.349-.247.232-.372.54-.372.922s.13.739.388 1.069l3.735 4.882 1.022-1.751 1.039.62-1.302 2.123zM17.79 41.81c.414 0 .778-.099 1.093-.295.315-.196.56-.45.736-.76a1.95 1.95 0 0 0 .264-.976 1.95 1.95 0 0 0-.264-.976 2.116 2.116 0 0 0-.736-.76 2.028 2.028 0 0 0-1.092-.294h-2.464v4.06h2.464zm-3.765-5.316h3.734c.62 0 1.194.14 1.72.418.528.279.948.67 1.264 1.17.315.501.473 1.067.473 1.697 0 .63-.158 1.196-.473 1.697a3.274 3.274 0 0 1-1.263 1.17 3.62 3.62 0 0 1-1.72.419h-2.433v4.525h-1.302V36.494zM22.533 39.686h1.255v1.27h.062c.155-.433.454-.792.899-1.076a2.55 2.55 0 0 1 1.394-.426c.362 0 .672.052.93.154v1.427a2.462 2.462 0 0 0-1.115-.249c-.383 0-.734.109-1.054.326a2.35 2.35 0 0 0-.768.876 2.527 2.527 0 0 0-.286 1.185v4.417h-1.317v-7.904zM32.722 46.28a2.688 2.688 0 0 0 1.008-1.046c.253-.454.38-.986.38-1.596 0-.61-.127-1.141-.38-1.596a2.66 2.66 0 0 0-2.363-1.41c-.486 0-.94.121-1.364.364a2.671 2.671 0 0 0-1.016 1.046c-.253.455-.38.987-.38 1.596 0 .61.127 1.142.38 1.596a2.696 2.696 0 0 0 2.38 1.41c.485 0 .937-.12 1.355-.364m-3.448 1a3.9 3.9 0 0 1-1.45-1.519 4.393 4.393 0 0 1-.518-2.123c0-.775.173-1.482.519-2.123.346-.64.83-1.147 1.45-1.519.619-.372 1.316-.558 2.091-.558.775 0 1.472.186 2.092.558.62.372 1.103.879 1.45 1.519.345.64.519 1.348.519 2.123 0 .775-.174 1.483-.52 2.123a3.9 3.9 0 0 1-1.449 1.519c-.62.372-1.317.558-2.092.558-.775 0-1.472-.186-2.092-.558M36.837 37.95a.91.91 0 0 1-.279-.666c0-.258.093-.477.279-.659a.923.923 0 0 1 .666-.27c.258 0 .48.09.667.27.185.182.278.401.278.66 0 .258-.09.48-.27.666a.902.902 0 0 1-.675.278.909.909 0 0 1-.666-.278m-1.55 13.033v-1.256a1.415 1.415 0 0 0 .65.17c.321 0 .553-.1.698-.301.145-.202.217-.499.217-.891v-9.02h1.302v9.02c0 .795-.191 1.392-.573 1.79-.383.397-.914.596-1.597.596-.247 0-.48-.036-.697-.108M45.794 42.801c-.02-.33-.113-.66-.278-.992a2.129 2.129 0 0 0-.783-.837c-.357-.226-.804-.34-1.341-.34-.62 0-1.144.199-1.573.596-.429.398-.71.922-.844 1.573h4.82zm-4.308 4.494a3.763 3.763 0 0 1-1.403-1.495c-.335-.635-.503-1.35-.503-2.147 0-.764.158-1.467.472-2.107a3.832 3.832 0 0 1 1.341-1.535c.578-.382 1.25-.573 2.015-.573.775 0 1.446.173 2.014.52a3.45 3.45 0 0 1 1.31 1.433c.305.61.457 1.307.457 2.092 0 .155-.015.29-.047.403h-6.245c.031.6.176 1.106.434 1.519.258.413.586.723.984.93.398.207.814.31 1.248.31 1.012 0 1.792-.475 2.34-1.426l1.116.542a3.978 3.978 0 0 1-1.388 1.519c-.583.372-1.288.558-2.115.558-.754 0-1.43-.18-2.03-.543zM50.164 47.288a3.841 3.841 0 0 1-1.426-1.503c-.34-.636-.511-1.351-.511-2.147 0-.795.17-1.513.511-2.154a3.774 3.774 0 0 1 1.426-1.503c.61-.362 1.297-.543 2.062-.543.857 0 1.578.2 2.161.597.584.398 1 .928 1.248 1.589l-1.193.495c-.197-.485-.489-.855-.876-1.108-.387-.253-.855-.38-1.403-.38-.465 0-.899.127-1.301.38a2.753 2.753 0 0 0-.969 1.062c-.243.454-.364.976-.364 1.565 0 .59.121 1.11.364 1.565.243.455.566.809.969 1.062.402.253.836.38 1.301.38.559 0 1.039-.13 1.442-.388s.702-.625.898-1.1l1.178.496a3.48 3.48 0 0 1-1.294 1.58c-.594.403-1.315.605-2.161.605-.765 0-1.452-.184-2.062-.55M59.021 47.559a2.026 2.026 0 0 1-.69-.419 1.904 1.904 0 0 1-.464-.681c-.104-.258-.155-.574-.155-.946V40.88h-1.38v-1.194h1.38v-2.231h1.316v2.231h1.922v1.194h-1.922v4.308c0 .434.083.754.249.96.196.228.48.341.852.341.3 0 .589-.087.868-.263v1.286a2.003 2.003 0 0 1-.473.155c-.16.031-.364.047-.612.047-.32 0-.617-.052-.89-.155M63.182 47.241a3.255 3.255 0 0 1-1.209-1.526l1.178-.527c.196.475.488.842.875 1.1.388.258.814.388 1.279.388.496 0 .92-.101 1.271-.303.35-.201.527-.488.527-.86 0-.33-.14-.596-.419-.798-.278-.202-.718-.374-1.317-.519l-.961-.248c-.63-.155-1.146-.418-1.55-.79-.403-.372-.604-.853-.604-1.442 0-.454.137-.855.41-1.2a2.628 2.628 0 0 1 1.093-.799 3.856 3.856 0 0 1 1.473-.279c.692 0 1.31.15 1.852.45.542.3.927.718 1.154 1.255l-1.147.527c-.351-.703-.976-1.054-1.875-1.054-.434 0-.813.101-1.139.302-.326.202-.488.457-.488.767 0 .29.114.525.341.706.227.18.568.328 1.023.441l1.147.295c.774.196 1.358.488 1.75.875.393.388.59.86.59 1.418 0 .486-.14.912-.419 1.279a2.66 2.66 0 0 1-1.131.844 4.104 4.104 0 0 1-1.581.295c-.847 0-1.555-.2-2.123-.597"/></g></svg>