<?xml version="1.0" encoding="utf-8"?>
<!-- Generator: Adobe Illustrator 19.0.0, SVG Export Plug-In . SVG Version: 6.00 Build 0)  -->
<svg version="1.1" xmlns="http://www.w3.org/2000/svg" xmlns:xlink="http://www.w3.org/1999/xlink" x="0px" y="0px"
	 viewBox="0 0 27.6 26.2" style="enable-background:new 0 0 27.6 26.2;" xml:space="preserve">
<metadata><?xpacket begin="﻿" id="W5M0MpCehiHzreSzNTczkc9d"?>
<x:xmpmeta xmlns:x="adobe:ns:meta/" x:xmptk="Adobe XMP Core 5.6-c067 79.157747, 2015/03/30-23:40:42        ">
   <rdf:RDF xmlns:rdf="http://www.w3.org/1999/02/22-rdf-syntax-ns#">
      <rdf:Description rdf:about=""/>
   </rdf:RDF>
</x:xmpmeta>
                                                                                                    
                                                                                                    
                                                                                                    
                                                                                                    
                                                                                                    
                                                                                                    
                                                                                                    
                                                                                                    
                                                                                                    
                                                                                                    
                                                                                                    
                                                                                                    
                                                                                                    
                                                                                                    
                                                                                                    
                                                                                                    
                                                                                                    
                                                                                                    
                                                                                                    
                                                                                                    
                           
<?xpacket end="w"?></metadata>
<style type="text/css">
	.st0{fill:#FFFFFF;}
</style>
<g id="Layer_1">
	<g id="XMLID_111_">
		<path id="XMLID_109_" class="st0" d="M26.8,15.3h-26c-0.4,0-0.8-0.3-0.8-0.8c0-0.4,0.3-0.8,0.8-0.8h26c0.4,0,0.8,0.3,0.8,0.8
			C27.6,14.9,27.2,15.3,26.8,15.3z"/>
		<path id="XMLID_108_" class="st0" d="M17.9,16.1c-0.1,0-0.2-0.1-0.3-0.1h-0.4h-5.4h-0.8c-0.4,0-0.8,0.3-0.8,0.8
			c0,0.4,0.3,0.7,0.8,0.8l3.9,0.7c0.3,0.1,0.2,0.5-0.1,0.5h-3.3c-0.3,0-0.7-0.1-1.1-0.2l-6.1-2.5l0,0c-0.1,0-0.2-0.1-0.3-0.1
			c-0.4,0-0.8,0.3-0.8,0.8c0,0.3,0.1,0.5,0.3,0.6l0,0l0,0l0,0l6.6,4.3c0.5,0.3,1,0.4,1.6,0.4h5.3h2.7l1.8,0.7l0.7-4.8L17.9,16.1z"/>
		<polygon id="XMLID_107_" class="st0" points="23.4,17.2 23.2,18.5 22.5,23.2 22.2,24.9 27.6,26 27.6,18 		"/>
		<path id="XMLID_106_" class="st0" d="M14.8,10.8h-2.1c-0.3,0-0.5-0.2-0.5-0.5c0-0.3,0.2-0.5,0.5-0.5h2.1c0.3,0,0.5,0.2,0.5,0.5
			C15.3,10.6,15.1,10.8,14.8,10.8z"/>
		<path id="XMLID_105_" class="st0" d="M14.8,11.4h-2.1c-0.3,0-0.5,0.2-0.5,0.5c0,0.3,0.2,0.5,0.5,0.5h0.3c0,0.3,0.2,0.5,0.5,0.5H14
			c0.3,0,0.5-0.2,0.5-0.5h0.3c0.3,0,0.5-0.2,0.5-0.5C15.3,11.6,15.1,11.4,14.8,11.4z"/>
		<path id="XMLID_104_" class="st0" d="M16.5,6.3c0.6-0.7,1-1.6,1-2.6c0-2.1-1.7-3.8-3.8-3.8S10,1.7,10,3.8c0,1,0.3,1.8,0.9,2.5
			c0.3,0.3,1.2,1.5,1.2,2.4c0,0.3,0.2,0.5,0.5,0.5h2.1c0.3,0,0.5-0.2,0.5-0.5v0C15.4,7.7,16.2,6.7,16.5,6.3z"/>
	</g>
</g>
<g id="Dimension_Layer">
</g>
</svg>
