<?xml version="1.0" encoding="utf-8"?>
<!-- Generator: Adobe Illustrator 19.0.0, SVG Export Plug-In . SVG Version: 6.00 Build 0)  -->
<svg version="1.1" xmlns="http://www.w3.org/2000/svg" xmlns:xlink="http://www.w3.org/1999/xlink" x="0px" y="0px"
	 viewBox="0 0 52.7 75.6" style="enable-background:new 0 0 52.7 75.6;" xml:space="preserve">
<metadata><?xpacket begin="﻿" id="W5M0MpCehiHzreSzNTczkc9d"?>
<x:xmpmeta xmlns:x="adobe:ns:meta/" x:xmptk="Adobe XMP Core 5.6-c067 79.157747, 2015/03/30-23:40:42        ">
   <rdf:RDF xmlns:rdf="http://www.w3.org/1999/02/22-rdf-syntax-ns#">
      <rdf:Description rdf:about=""/>
   </rdf:RDF>
</x:xmpmeta>
                                                                                                    
                                                                                                    
                                                                                                    
                                                                                                    
                                                                                                    
                                                                                                    
                                                                                                    
                                                                                                    
                                                                                                    
                                                                                                    
                                                                                                    
                                                                                                    
                                                                                                    
                                                                                                    
                                                                                                    
                                                                                                    
                                                                                                    
                                                                                                    
                                                                                                    
                                                                                                    
                           
<?xpacket end="w"?></metadata>
<style type="text/css">
	.st0{fill:#FFFFFF;}
	.st1{fill-rule:evenodd;clip-rule:evenodd;fill:#FFFFFF;}
	.st2{opacity:0.5;fill:#FFFFFF;}
	.st3{opacity:0.5;}
</style>
<g id="Layer_1">
	<g id="XMLID_69_">
		<path id="XMLID_127_" class="st0" d="M0.4,65.2h1.9v2h0c0.3-0.8,1.1-2.2,3-2.2v2c-1.7,0-3.1,0.8-3.1,3.9v4.2H0.4V65.2z"/>
		<g id="XMLID_92_">
			<path id="XMLID_96_" class="st1" d="M49.7,27.9c0,0,0.7-1,1.1-2.1c0.7-1.9,0.7-3.6,0.7-3.6s-0.4-0.8-1.3-1.7c-1-0.8-1-0.9-1-0.9
				s-0.6,1.6-1.5,3.1c-0.9,1.4-1.4,2.1-1.4,2.1s1.3,0.4,1.9,1C49.3,26.7,49.7,27.9,49.7,27.9z M2,32c0,0,0.3-1.7,0.5-2.3
				c0.2-0.6,1-2.8,1-2.8s-1.3-0.5-1.9-1.1c-0.6-0.6-0.9-1.2-0.9-1.2l-0.5,2c-0.1,0.3-0.2,1.5-0.2,1.5s0.2,1.2,0.4,1.5
				C0.6,30,0.9,30.6,1.2,31C1.5,31.4,2,32,2,32z M7.2,14.2c0,0,1.1,0.3,1.9,0.4c1.6,0.2,4-0.3,4-0.3s-2,1.8-3.2,3.2
				c-1.2,1.5-2.5,3-2.5,3s-2.1-0.1-3.2-0.8C3.9,19.5,3.4,19,3.4,19s1.4-2,2.3-3.2C6.3,15.2,7.2,14.2,7.2,14.2z M6,10.4
				c0,0-0.3,0.7-0.4,1.2c0,0.5,0.1,1.2,0.1,1.2S4,15.2,3.6,16c-0.4,0.8-0.9,1.8-0.9,1.8s-0.3-1,0-2.1c0.3-1.1,0.9-2.3,1.6-3.2
				C5,11.5,6,10.4,6,10.4z M10.8,7.3c0,0,2.7-2.1,3.4-2.5c0.8-0.5,3.9-2.1,3.9-2.1s-0.6,0-1.5,0.3c-0.9,0.3-2.9,1.4-3.2,1.7
				c-0.3,0.2-1.8,1.4-2.1,1.7C11.1,6.5,10.8,7.3,10.8,7.3z M12.4,4.7c0,0-1,0.9-1.3,1.2c-0.3,0.3-0.8,1.1-0.8,1.6
				c0,0.5,0.3,0.9,0.5,1.1c0.3,0.2,1.1,0.4,1.5,0.4c0.4,0,2.6-0.2,3.9-0.8c1.3-0.6,2.8-1.4,4-2.3C21.4,5,22,4.1,22.1,3.5
				C22.1,3,21.9,2,20.5,2c-1.4,0-1.5,0.1-1.5,0.1s3.9-1.6,6.5-1.2c2.6,0.4,2.8,1.5,2.9,1.8c0.1,0.3,0.7,2.8-5.4,7
				c-6.1,4.2-12.2,4.5-12.5,4.5c-0.4,0-1.8,0.2-3.4-0.6c-1.5-0.7-1.2-2.1-0.9-2.9c0.3-0.8,1.1-1.9,2.1-2.9C10,6.3,12.4,4.7,12.4,4.7
				z M34.7,3.8c0,0-0.3-1.2-1.8-1.9c-1.3-0.6-2.7-1-3.8-1c-0.6,0-2,0.1-2,0.1s0.7,0.3,1,0.6c0.3,0.2,0.7,0.8,0.7,1.3
				c0.1,0.5-0.1,1.2-0.2,1.4l-0.3,0.5c0,0,1.8-0.6,3-0.7C32.7,3.8,34.7,3.8,34.7,3.8z M33.8,2c0,0,1.2,0.4,2.1,0.8
				c1,0.4,2.5,1.2,2.8,1.4c0.3,0.2,1,0.7,1.5,1.6c0.5,0.9,1.4,3.5-2.5,8.1c-3.8,4.5-11.4,9.3-18.5,11.6C12.2,27.7,7,28,3.7,26.6
				c-3.3-1.4-3.1-3.9-3.1-4s0-1.1,0.4-2.3c0.3-1.3,1.2-3.5,1.2-3.5s0,0.5,0.1,1C2.4,18.3,2.9,19,3,19.2c0.2,0.2,1.5,1.3,3.5,1.6
				c2.1,0.3,3.9,0.1,6.3-0.3c2.3-0.4,6.9-1.8,10.6-3.8c5.2-2.7,7.9-5.2,9.9-7.6c1.7-2.1,1.9-4.1,1.8-4.7c0-0.7-0.5-1.7-0.8-1.9
				C34.1,2.2,33.8,2,33.8,2z M45.6,9.7c0,0,1.9,2.4,2.3,3c0.4,0.6,1,1.6,1.4,2.8c0.4,1.2-0.3,3.7-0.3,3.7S48,23,43.2,27.6
				c-4.9,4.6-12.4,8.8-18.8,10.8c-6.4,2-10,2.1-10,2.1s-3.3,0.4-7-0.5c-3.7-0.9-5.2-3.3-5.2-3.3S1.4,35,1.1,33.2
				c-0.4-1.8-0.5-2.6-0.5-2.6s0.5,0.9,1.1,1.4c0.6,0.6,0.5,0.5,1.9,1.2c1.4,0.7,2.6,0.9,3.2,1c0.6,0.1,3.7,0.4,6,0.1
				c2.3-0.3,6.3-1.2,6.3-1.2s3.3-0.6,9.3-3.5c6-2.9,8.9-5.4,10.3-6.6c1.4-1.2,4.9-4.3,6.3-7.5c1.4-3.2,1-4.7,0.9-5
				C45.8,10.3,45.6,9.7,45.6,9.7z M40,11.3c0,0,0.9-2.1,1.1-2.9c0.1-0.8-0.1-2-0.1-2s0.7,0.2,1.2,0.3c0.6,0.2,1.8,1.1,1.8,1.1
				s1,1,1.3,1.8c0.6,1.5,0.3,2.9,0.3,2.9s-1-0.6-2-0.9C42.3,11.3,40,11.3,40,11.3z M13.4,20c0,0,5-1.1,9.8-3.5
				c4.8-2.5,7.7-5.2,8.7-6.2c1.1-1.1,2-2.4,2.1-2.6l0.5-1c0,0-3.7,0.4-10.2,4.2C17.7,14.8,13.4,20,13.4,20z M4.5,39.1l0.1,0.5
				C4.6,40.3,4.8,41,5,41.6c0.2,0.6,0.5,1.1,0.9,1.6c0.5,0.4,1.2,0.9,2.2,1.3c1.1,0.5,2.8,1.1,2.8,1.1s-0.3-0.3-0.3-0.4
				c-0.4-0.6-0.7-1.4-0.9-2.2c-0.2-0.7-0.3-2.2-0.3-2.2S7.2,40.4,6,39.9C5.4,39.6,4.5,39.1,4.5,39.1z M5.2,33.6c0,0,1.2,0.4,2.1,0.5
				c1.7,0.2,3.6,0.2,3.6,0.2s0.8-2.1,1.9-3.8c1-1.6,2.3-3.4,2.3-3.4s-2.6,0.5-4.3,0.7c-1.1,0.1-2.9,0.1-2.9,0.1s-1.1,1.9-1.6,3.1
				C5.7,31.9,5.2,33.6,5.2,33.6z M12.9,8.6c0,0,2.4-1.9,4-3c2.1-1.4,4.8-2.8,4.8-2.8S22.5,4.6,18,7C14.6,8.9,12.9,8.6,12.9,8.6z
				 M7.3,44.4c0,0,2.7,1.6,5.5,1.8c2.8,0.2,8.7,0.6,17.5-2.9C39,39.8,44.5,35,46.7,32.6c2.2-2.4,3.7-5,4-5.5
				c0.2-0.5,0.9-2.7,0.9-2.7l0.1-1c0,0,0.3,2,0.3,2.8c0,0.7,0.2,4.1-1.7,7c-1.9,3-4.7,6.4-9.5,9.5c-5.1,3.3-10.5,5.5-16,6.6
				c-5.5,1.1-9.4,0.1-9.4,0.1S13.1,49,11.6,48C9.5,46.8,7.3,44.4,7.3,44.4z M30.7,42.7c0,0,4.2-1.8,6.7-3.3c2.9-1.7,7.1-5.1,7.1-5.1
				s-2.8-0.5-7.1,1.9C32.7,38.9,30.7,42.7,30.7,42.7z M43,44.9c0,0,1.9-1.6,3-2.7c1.2-1.3,2.3-2.8,2.3-2.8s0.2-1.2,0.1-1.7
				c-0.1-0.6-0.2-0.9-0.2-0.9s-1.2,1.5-1.7,1.9c-0.5,0.4-2.3,2.1-2.3,2.1s0.3,0.7,0.1,1.5C44,43.6,43,44.9,43,44.9z M29.7,48.4
				c0,0,3.2-1.2,3.8-1.4c0.6-0.2,1.9-0.8,1.9-0.8s0.2,0.6,0.5,0.9c0.3,0.2,0.6,0.5,1.5,0.5c0.9,0,1.7-0.2,1.7-0.2s-2.2,1.3-3.7,2
				c-1.2,0.5-3.2,1.1-3.2,1.1s-0.7,0-1.6-0.8C29.8,48.8,29.7,48.4,29.7,48.4z M43.1,18.3c-1.7,0-3.5,0.4-5.4,1
				c-2.2,0.7-4.4,1.8-6.8,3.2c-2.3,1.4-4.5,3.1-6.4,4.9c-1.7,1.6-3.3,3.4-4.7,5.2c-0.2,0.2,7.2-2.3,12.2-5.2
				C38.6,23.6,43.3,18.2,43.1,18.3z M15.4,40.7c0,0-0.9,2.6-0.8,4.5c0,0.2,0,0.7,0,0.7s1.3,0.1,2.9,0c1.5-0.1,3.4-0.3,3.4-0.4
				c0-1.4,0.3-2.8,0.9-4.4c0.1-0.1,0.8-1.8,0.8-1.8s-2.6,0.8-4.5,1.1C16.4,40.6,15.4,40.7,15.4,40.7z M16.2,49.9
				c0,0,0.4,0.4,0.6,0.6c0.4,0.3,0.8,0.6,1.2,0.8c0.4,0.2,5.1,0.6,5.1,0.6l5.5-0.6c0,0-2.8,0-3.9-0.4c-0.7-0.3-1.9-1.1-1.9-1.1
				s-2.1,0.3-3.5,0.2C17.4,50.1,16.2,49.9,16.2,49.9z M22.6,52.4c0,0,0.7,0.1,2.7-0.1c2-0.2,4.1-0.7,4.1-0.7s2-0.5,2.9-0.8
				c0.9-0.3,2.2-0.8,3.9-1.5c1.7-0.8,2-0.8,4.1-2.2c2.1-1.3,2.7-1.9,2.9-2c0.5-0.3,2.7-2.2,3.3-2.9c0.7-0.7,1.3-1.5,1.3-1.5
				s-0.9,1.5-1.9,2.6c-1,1.1-1.9,2.3-4.6,4.3C36.4,51,32,51.9,32,51.9C27.8,53.1,22.6,52.4,22.6,52.4z"/>
			<path id="XMLID_93_" class="st0" d="M13.9,75c-0.8,0.2-1.4,0.3-2.5,0.3c-3,0-4.9-1.8-4.9-5.6c0-4.2,2.8-4.7,4-4.7
				c2.4,0,3.6,1.6,3.6,4v0.5H8.4c0,1.8,0.9,4.4,3.6,4.4c0.9,0,1.4-0.2,1.9-0.4V75z M12.3,68.2c0-0.6-0.4-1.7-1.8-1.7
				c-1.5,0-2,1.3-2,1.7H12.3z"/>
		</g>
		<path id="XMLID_89_" class="st0" d="M21.9,73.6L21.9,73.6c-0.2,0.6-1.1,1.7-2.8,1.7c-2.4,0-3.4-2.2-3.4-5c0-3.3,1.2-5.3,3.5-5.3
			c1.6,0,2.4,1,2.6,1.6h0v-5.8h1.9v14.3h-1.9V73.6z M19.7,73.9c1.5,0,2.1-2.1,2.1-3.7c0-1.7-0.5-3.7-2.2-3.7c-1.5,0-1.9,1.6-1.9,3.7
			C17.8,71.7,18,73.9,19.7,73.9z"/>
		<path id="XMLID_86_" class="st2" d="M32,73.6L32,73.6c-0.2,0.6-1.1,1.7-2.8,1.7c-2.4,0-3.4-2.2-3.4-5c0-3.3,1.2-5.3,3.5-5.3
			c1.6,0,2.4,1,2.6,1.6h0v-5.8h1.9v14.3H32V73.6z M29.9,73.9c1.5,0,2.1-2.1,2.1-3.7c0-1.7-0.5-3.7-2.2-3.7c-1.5,0-1.9,1.6-1.9,3.7
			C28,71.7,28.2,73.9,29.9,73.9z"/>
		<path id="XMLID_83_" class="st2" d="M36.2,70.2c0-3.2,1.4-5.2,4.4-5.2c3,0,4.4,2,4.4,5.2c0,3.1-1.4,5.2-4.4,5.2
			C37.6,75.3,36.2,73.3,36.2,70.2z M40.6,73.9c2,0,2.3-2.1,2.3-3.7c0-1.6-0.3-3.7-2.3-3.7c-2.1,0-2.3,2.1-2.3,3.7
			C38.3,71.7,38.5,73.9,40.6,73.9z"/>
		<path id="XMLID_81_" class="st2" d="M52.5,75.2c-0.5,0.1-1,0.1-1.5,0.1c-2.4,0-3-1.1-3-2.4v-6.2h-1.8v-1.5H48v-2.3l1.9-1.2v3.5
			h2.7v1.5h-2.7V72c0,0.9,0.1,1.9,1.6,1.9c0.3,0,0.7-0.1,1-0.1V75.2z"/>
		<g id="XMLID_80_" class="st3">
		</g>
	</g>
</g>
<g id="Dimension_Layer">
</g>
</svg>
